<svg version="1.1" xmlns="http://www.w3.org/2000/svg" xmlns:xlink="http://www.w3.org/1999/xlink" width="89.70996" height="92.3" viewBox="0,0,89.70996,92.3"><g transform="translate(-274.66068,-134.83598)"><g fill="#f3bb1b" fill-rule="evenodd" stroke="none" stroke-miterlimit="10"><path d="M319.17464,134.83598c5.1,0 10.9,3.3 15.5,5c4.9,1.7 9.1,1.3 13.1,4.5c3.7,3 3.3,6.9 5.9,11c1.8,2.8 6.7,5 8.4,8.6c2.4,5 1.4,11.5 1.4,16.5c0,3.4 1.4,9.9 0.7,13.1c-1.7,7.4 -9.3,9.7 -14.1,15.2c-3.9,4.4 -6.4,9.1 -11.7,11.6c-5.8,2.8 -10.7,6.8 -17.6,6.8c-3.7,0 -8.9,-5 -12.3,-5.9c-4.6,-1.1 -13.6,1.1 -15.8,-3c-7.4,-14 -9.8,-12.1 -13.3,-17.3c-4.7,-7 -3.1,-11.9 -3.1,-21c0,-4.7 -2.6,-9.2 -1.2,-13.4c1.7,-5.3 6.4,-9.7 9.8,-13.9c4.8,-6 13.7,-8.5 20.9,-11.4c4.8,-1.9 7.7,-6.4 13.4,-6.4z"/></g></g></svg>