<svg version="1.1" xmlns="http://www.w3.org/2000/svg" xmlns:xlink="http://www.w3.org/1999/xlink" width="169.07863" height="71.07863" viewBox="0,0,169.07863,71.07863"><g transform="translate(-238.5,-147.5)"><g stroke="none" stroke-miterlimit="10"><path d="M254.57863,218.57863c-5.52285,0 -10,-4.47715 -10,-10v-45c0,-5.52285 4.47715,-10 10,-10h143c5.52284,0 10,4.47715 10,10v45c0,5.52285 -4.47716,10 -10,10z" fill-opacity="0.36863" fill="#ffffff" stroke-width="0"/><path d="M248.5,212.5c-5.52285,0 -10,-4.47715 -10,-10v-45c0,-5.52285 4.47715,-10 10,-10h143c5.52285,0 10,4.47715 10,10v45c0,5.52285 -4.47715,10 -10,10z" fill="#ffde00" stroke-width="0"/><text transform="translate(277.69108,186.99741) scale(0.60649,0.60649)" font-size="40" xml:space="preserve" fill="#ffffff" stroke-width="1" font-family="Sans Serif" font-weight="normal" text-anchor="start"><tspan x="0" dy="0">Spielen</tspan></text></g></g></svg>