<svg version="1.1" xmlns="http://www.w3.org/2000/svg" xmlns:xlink="http://www.w3.org/1999/xlink" width="78.79666" height="52.68268" viewBox="0,0,78.79666,52.68268"><defs><linearGradient x1="283.73064" y1="103.69915" x2="289.88959" y2="127.71964" gradientUnits="userSpaceOnUse" id="color-1"><stop offset="0" stop-color="#0051ff"/><stop offset="1" stop-color="#00b90f"/></linearGradient></defs><g transform="translate(-245.04246,-102.03947)"><g stroke-miterlimit="10"><path d="M245.04246,112.7044c0,-5.52285 4.42925,-10 9.89301,-10h68.51065c0.01882,0.27377 0.07984,0.46251 0.26738,0.62117c-0.30899,1.62514 -0.27953,3.35951 -0.71699,4.97187c-0.01248,0.11009 -0.02496,0.22017 -0.03744,0.33026l0.00073,0.00258l-0.00097,-0.00009l-0.02014,0.22156c-0.11421,0.03731 -0.194,0.25737 -0.19273,0.7234c-0.12966,0.63924 -0.15655,2.08445 -0.08037,3.14625c-0.2841,0.97871 -0.60348,2.03312 -0.56842,3.00793l-0.09929,0v0.5c0,0.09923 0.05781,0.18495 0.14159,0.22533c-0.1147,0.51462 -0.24223,1.00529 -0.1514,1.49971c-0.00293,0.0362 -0.00586,0.07206 -0.00881,0.10754c-0.45268,0.61116 -0.51415,1.16151 -0.31513,1.6006c-0.12445,0.98014 -0.28764,1.97157 -0.36929,2.95916c-0.17828,0.70305 -0.34257,1.41783 -0.36913,2.04916c-0.01752,0.0833 -0.03538,0.16632 -0.05377,0.24898l0.00556,0.00382l-0.0061,-0.00122l-0.01172,0.05858l-0.02589,-0.00288l-0.03388,0.30494c-0.00127,0.01023 -0.00193,0.02065 -0.00193,0.03122c0,0.11751 0.08108,0.21609 0.19035,0.24284c0.00266,0.09362 0.00411,0.18814 0.0044,0.28344c-0.04936,0.04035 -0.08301,0.09919 -0.09038,0.16595l-0.03387,0.27097l0.00619,0.00077l-0.0075,0.0127c-0.00224,0.16227 -0.03601,0.41083 -0.08877,0.7152c-0.10038,0.33598 -0.17603,0.74788 -0.23385,1.20367c-0.21851,1.07464 -0.47287,2.30955 -0.50352,3.0745c-0.05188,0.18577 -0.10425,0.36819 -0.13033,0.56649l-0.06552,0.29483c-0.00466,0.01907 -0.00712,0.03899 -0.00712,0.0595c0,0.13807 0.11193,0.25 0.25,0.25c0.01624,0 0.03211,-0.00155 0.04748,-0.0045c0.0074,0.13301 0.01356,0.26555 0.01856,0.39767l-0.17426,0.17426l0.10362,0.10362c-0.54609,0.78087 -0.51967,2.22264 -0.51967,3.12433v0.23998c0,0 0,0.16715 0.13668,0.2281c-0.27999,1.78316 -1.07612,3.80149 -0.79276,5.59998h-0.06385v0.41139c0,0.10423 0.06378,0.19356 0.15444,0.23109c-0.75148,2.65731 -1.54516,5.51958 -1.47129,7.85413c-0.23503,-0.01057 -0.45494,0.10614 -0.62405,0.28223c-0.40605,0.07002 -0.55501,0.25593 -0.54123,0.47489c-0.0405,0.05299 -0.07345,0.11045 -0.09732,0.17225c-0.21658,0.09144 -0.35872,0.23141 -0.34993,0.44001l-0.12316,0.04479c-0.03097,0.01045 -0.05923,0.0268 -0.08344,0.04772c-0.18197,-0.01723 -0.36197,0.00572 -0.54855,0.07817l-0.05914,-0.10842l-0.37265,0.20327c-0.07315,0.03807 -0.12511,0.11125 -0.13354,0.1972c-0.90425,0.08463 -1.73055,0.19321 -2.34749,0.25564c-4.16454,0.4214 -5.5061,0.00613 -11.94241,0.082c-5.58632,0.06585 -11.99842,1.85552 -17.25304,1.73104c-12.62758,-0.29915 -25.29712,-0.84005 -38.00858,-0.83146z" fill="#000000" stroke="none" stroke-width="NaN" stroke-linecap="butt"/><path d="" fill="#000000" stroke="none" stroke-width="NaN" stroke-linecap="butt"/><path d="M322.83912,103.03948l-5.67825,46.90229" fill="none" stroke="#ffffff" stroke-width="2" stroke-linecap="round"/><path d="" fill="#000000" stroke="none" stroke-width="0" stroke-linecap="butt"/><path d="" fill="#000000" stroke="none" stroke-width="0" stroke-linecap="butt"/><path d="" fill="#000000" stroke="none" stroke-width="0" stroke-linecap="butt"/><path d="" fill="#000000" stroke="none" stroke-width="0" stroke-linecap="butt"/><path d="" fill="#000000" stroke="none" stroke-width="0" stroke-linecap="butt"/><path d="" fill="#000000" stroke="none" stroke-width="0" stroke-linecap="butt"/><path d="M291.75004,127.24261l-17.42724,-10.31422l7.27885,-12.29846c0.35815,-0.60503 1.13905,-0.80526 1.74406,-0.44718l1.58329,0.93692c0.45546,0.26963 0.69666,0.79275 0.60578,1.31418l-0.14331,0.82271l0.60846,-0.51219c0.41376,-0.34854 1.00269,-0.39729 1.46835,-0.12169l5.04399,2.98526c0.52357,0.30973 0.75471,0.94671 0.55187,1.52015l-1.62434,4.59183l3.2133,-3.64269c0.40422,-0.45816 1.0773,-0.56458 1.60318,-0.25334l2.32532,1.37623c0.60511,0.35813 0.80534,1.13903 0.44718,1.74406zM290.3947,129.53251l-2.10717,3.56034c-0.35807,0.60501 -1.13905,0.80526 -1.74406,0.44718l-3.37719,-1.99877c-0.6491,-0.3841 -1.42781,-0.4508 -2.13771,-0.18387c-0.70751,0.26666 -1.24822,0.83123 -1.48333,1.54912c-3.00937,9.1888 -3.55701,10.11422 -3.73701,10.41824c-1.28968,2.17932 -4.11408,2.90719 -6.29778,1.61477c-2.18155,-1.29121 -2.90592,-4.11633 -1.61477,-6.29778c0.17984,-0.30398 0.72729,-1.22909 7.33472,-8.28903c0.51741,-0.5529 0.75299,-1.29903 0.64624,-2.0472c-0.1068,-0.74868 -0.54122,-1.39899 -1.19189,-1.78408l-3.37719,-1.99877c-0.29064,-0.17187 -0.50098,-0.4523 -0.58484,-0.77936c-0.08386,-0.32705 -0.0343,-0.67404 0.13768,-0.96461l2.10711,-3.56023zM272.82469,139.33968c-0.85522,-0.50623 -1.95889,-0.22324 -2.46509,0.63206c-0.50623,0.85522 -0.22324,1.95889 0.63206,2.46509c0.85522,0.50623 1.95889,0.22324 2.46509,-0.63206c0.50621,-0.8553 0.22322,-1.95897 -0.63206,-2.46509z" fill="url(#color-1)" stroke="none" stroke-width="1" stroke-linecap="butt"/><path d="M321.54258,120.56397c0.00952,-0.34817 0.02957,-0.69324 0.07124,-1.03189c0.01425,0.04448 0.03106,0.08797 0.0503,0.13042c-0.03804,0.29958 -0.0797,0.60021 -0.12154,0.90147z" fill="#ffffff" stroke="none" stroke-width="0.5" stroke-linecap="butt"/><path d="M322.05094,117.91346c-0.00345,0.02202 -0.00646,0.04424 -0.00904,0.06664c-0.01691,0.02138 -0.03334,0.04268 -0.0493,0.06391c0.01868,-0.04374 0.03812,-0.08726 0.05834,-0.13055z" fill="#ffffff" stroke="none" stroke-width="0.5" stroke-linecap="butt"/><path d="" fill="#ffffff" stroke="none" stroke-width="0.5" stroke-linecap="butt"/><path d="M322.00864,122.79483c-0.01129,0.37005 -0.03654,0.73481 -0.08983,1.08928c-0.01854,-0.03611 -0.04824,-0.07068 -0.09553,-0.09407c0.07332,-0.31055 0.13425,-0.65239 0.18537,-0.99521z" fill="#ffffff" stroke="none" stroke-width="0.5" stroke-linecap="butt"/><path d="" fill="#ffffff" stroke="none" stroke-width="0.5" stroke-linecap="butt"/></g></g></svg>