<svg version="1.1" xmlns="http://www.w3.org/2000/svg" xmlns:xlink="http://www.w3.org/1999/xlink" width="379.47544" height="41.57454" viewBox="0,0,379.47544,41.57454"><defs><linearGradient x1="161.5" y1="180" x2="478.5" y2="180" gradientUnits="userSpaceOnUse" id="color-1"><stop offset="0" stop-color="#00c51e"/><stop offset="1" stop-color="#00b21b"/></linearGradient><linearGradient x1="115.49956" y1="158.9068" x2="121.65851" y2="182.92729" gradientUnits="userSpaceOnUse" id="color-2"><stop offset="0" stop-color="#0051ff"/><stop offset="1" stop-color="#00b90f"/></linearGradient></defs><g transform="translate(-99.02457,-159.21272)"><g stroke="none" stroke-miterlimit="10"><path d="M470.47469,168.76456c4.43226,0 8.02532,3.59306 8.02532,8.02532v6.42025c0,4.43226 -3.59306,8.02532 -8.02532,8.02532h-300.94937c-4.43226,0 -8.02532,-3.59306 -8.02532,-8.02532v-6.42025c0,-4.43226 3.59306,-8.02532 8.02532,-8.02532z" fill="url(#color-1)" stroke-width="0"/><path d="M123.51896,182.45026l-17.42724,-10.31422l7.27885,-12.29846c0.35815,-0.60503 1.13905,-0.80526 1.74406,-0.44718l1.58329,0.93692c0.45546,0.26963 0.69666,0.79275 0.60578,1.31418l-0.14331,0.82271l0.60846,-0.51219c0.41376,-0.34854 1.00269,-0.39729 1.46835,-0.12169l5.04399,2.98526c0.52357,0.30973 0.75471,0.94671 0.55187,1.52015l-1.62434,4.59183l3.2133,-3.64269c0.40422,-0.45816 1.0773,-0.56458 1.60318,-0.25334l2.32532,1.37623c0.60511,0.35813 0.80534,1.13903 0.44718,1.74406zM122.16362,184.74017l-2.10717,3.56034c-0.35807,0.60501 -1.13905,0.80526 -1.74406,0.44718l-3.37719,-1.99877c-0.6491,-0.3841 -1.42781,-0.4508 -2.13771,-0.18387c-0.70751,0.26666 -1.24822,0.83123 -1.48333,1.54912c-3.00937,9.1888 -3.55701,10.11422 -3.73701,10.41824c-1.28968,2.17932 -4.11408,2.90719 -6.29778,1.61477c-2.18155,-1.29121 -2.90592,-4.11633 -1.61477,-6.29778c0.17984,-0.30398 0.72729,-1.22909 7.33472,-8.28903c0.51741,-0.5529 0.75299,-1.29903 0.64624,-2.0472c-0.1068,-0.74868 -0.54122,-1.39899 -1.19189,-1.78408l-3.37719,-1.99877c-0.29064,-0.17187 -0.50098,-0.4523 -0.58484,-0.77936c-0.08386,-0.32705 -0.0343,-0.67404 0.13768,-0.96461l2.10711,-3.56023zM104.59361,194.54734c-0.85522,-0.50623 -1.95889,-0.22324 -2.46509,0.63206c-0.50623,0.85522 -0.22324,1.95889 0.63206,2.46509c0.85522,0.50623 1.95889,0.22324 2.46509,-0.63206c0.50621,-0.8553 0.22322,-1.95897 -0.63206,-2.46509z" fill="url(#color-2)" stroke-width="1"/></g></g></svg>