<svg version="1.1" xmlns="http://www.w3.org/2000/svg" xmlns:xlink="http://www.w3.org/1999/xlink" width="49.1253" height="49.30342" viewBox="0,0,49.1253,49.30342"><g transform="translate(-295.31023,-154.82809)"><g stroke="none" stroke-miterlimit="10"><path d="M344.43553,154.82809v49.30342h-49.12529v-49.30342z" fill="#acacac"/><path d="M344.43553,187.68909v4.09377h-4.09377v-4.09377z" fill="#7b7b7b"/><path d="M344.43553,179.50154v4.09377h-4.09377v-4.09377z" fill="#7b7b7b"/><path d="M344.43553,175.40772v4.09377h-4.09377v-4.09377z" fill="#7b7b7b"/><path d="M340.34175,191.78286v4.09377h-4.09377v-4.09377z" fill="#7b7b7b"/><path d="M340.34175,187.68909v4.09377h-4.09377v-4.09377z" fill="#7b7b7b"/><path d="M340.34175,183.59532v4.09377h-4.09377v-4.09377z" fill="#7b7b7b"/><path d="M336.24798,191.78286v4.09377h-4.09377v-4.09377z" fill="#7b7b7b"/><path d="M336.24798,183.59532v4.09377h-4.09377v-4.09377z" fill="#7b7b7b"/><path d="M336.24798,175.40772v4.09377h-4.09377v-4.09377z" fill="#7b7b7b"/><path d="M332.1542,191.78286v4.09377h-4.09377v-4.09377z" fill="#7b7b7b"/><path d="M332.1542,187.68909v4.09377h-4.09377v-4.09377z" fill="#7b7b7b"/><path d="M332.1542,179.50154v4.09377h-4.09377v-4.09377z" fill="#7b7b7b"/><path d="M332.1542,175.40772v4.09377h-4.09377v-4.09377z" fill="#7b7b7b"/><path d="M328.06042,187.68909v4.09377h-4.09377v-4.09377z" fill="#7b7b7b"/><path d="M328.06042,183.59532v4.09377h-4.09377v-4.09377z" fill="#7b7b7b"/><path d="M328.06042,179.50154v4.09377h-4.09377v-4.09377z" fill="#7b7b7b"/><path d="M323.96665,191.78286v4.09377h-4.09377v-4.09377z" fill="#7b7b7b"/><path d="M323.96665,187.68909v4.09377h-4.09377v-4.09377z" fill="#7b7b7b"/><path d="M323.96665,179.50154v4.09377h-4.09377v-4.09377z" fill="#7b7b7b"/><path d="M323.96665,175.40772v4.09377h-4.09377v-4.09377z" fill="#7b7b7b"/><path d="M319.87288,191.78286v4.09377h-4.09377v-4.09377z" fill="#7b7b7b"/><path d="M319.87288,187.68909v4.09377h-4.09377v-4.09377z" fill="#7b7b7b"/><path d="M319.87288,183.59532v4.09377h-4.09377v-4.09377z" fill="#7b7b7b"/><path d="M319.87288,179.50154v4.09377h-4.09377v-4.09377z" fill="#7b7b7b"/><path d="M319.87288,175.40772v4.09377h-4.09377v-4.09377z" fill="#502d16"/><path d="M315.7791,187.68909v4.09377h-4.09377v-4.09377z" fill="#7b7b7b"/><path d="M315.7791,183.59532v4.09377h-4.09377v-4.09377z" fill="#7b7b7b"/><path d="M315.7791,175.40772v4.09377h-4.09377v-4.09377z" fill="#7b7b7b"/><path d="M311.68533,191.78286v4.09377h-4.09377v-4.09377z" fill="#7b7b7b"/><path d="M311.68533,187.68909v4.09377h-4.09377v-4.09377z" fill="#7b7b7b"/><path d="M311.68533,183.59532v4.09377h-4.09377v-4.09377z" fill="#7b7b7b"/><path d="M311.68533,179.50154v4.09377h-4.09377v-4.09377z" fill="#7b7b7b"/><path d="M311.68533,175.40772v4.09377h-4.09377v-4.09377z" fill="#7b7b7b"/><path d="M307.59157,191.78286v4.09377h-4.09377v-4.09377z" fill="#7b7b7b"/><path d="M307.59157,183.59532v4.09377h-4.09377v-4.09377z" fill="#7b7b7b"/><path d="M307.59157,179.50154v4.09377h-4.09377v-4.09377z" fill="#7b7b7b"/><path d="M303.49778,191.78286v4.09377h-4.09377v-4.09377z" fill="#7b7b7b"/><path d="M303.49778,187.68909v4.09377h-4.09377v-4.09377z" fill="#7b7b7b"/><path d="M303.49778,179.50154v4.09377h-4.09377v-4.09377z" fill="#7b7b7b"/><path d="M303.49778,175.40772v4.09377h-4.09377v-4.09377z" fill="#7b7b7b"/><path d="M299.404,187.68909v4.09377h-4.09377v-4.09377z" fill="#7b7b7b"/><path d="M299.404,183.59532v4.09377h-4.09377v-4.09377z" fill="#7b7b7b"/><path d="M299.404,179.50154v4.09377h-4.09377v-4.09377z" fill="#7b7b7b"/><path d="M319.87288,195.87664v4.09377h-4.09377v-4.09377z" fill="#502d16"/><g fill="#7b7b7b"><path d="M344.43551,167.2589v4.09377h-4.09377v-4.09377z"/><path d="M344.43551,159.07136v4.09377h-4.09377v-4.09377z"/><path d="M344.43551,154.97753v4.09377h-4.09377v-4.09377z"/><path d="M340.34174,171.35268v4.09378h-4.09377v-4.09378z"/><path d="M340.34174,167.2589v4.09377h-4.09377v-4.09377z"/><path d="M340.34174,163.16513v4.09377h-4.09377v-4.09377z"/><path d="M336.24798,171.35268v4.09378h-4.09377v-4.09378z"/><path d="M336.24798,163.16513v4.09377h-4.09377v-4.09377z"/><path d="M336.24798,154.97753v4.09377h-4.09377v-4.09377z"/><path d="M332.1542,171.35268v4.09378h-4.09378v-4.09378z"/><path d="M332.1542,167.2589v4.09377h-4.09378v-4.09377z"/><path d="M332.1542,159.07136v4.09377h-4.09378v-4.09377z"/><path d="M332.1542,154.97753v4.09377h-4.09378v-4.09377z"/><path d="M328.06042,167.2589v4.09377h-4.09377v-4.09377z"/><path d="M328.06042,163.16513v4.09377h-4.09377v-4.09377z"/><path d="M328.06042,159.07136v4.09377h-4.09377v-4.09377z"/><path d="M323.96665,171.35268v4.09378h-4.09377v-4.09378z"/><path d="M323.96665,167.2589v4.09377h-4.09377v-4.09377z"/><path d="M323.96665,159.07136v4.09377h-4.09377v-4.09377z"/><path d="M323.96665,154.97753v4.09377h-4.09377v-4.09377z"/><path d="M319.87288,171.35268v4.09378h-4.09377v-4.09378z"/><path d="M319.87288,167.2589v4.09377h-4.09377v-4.09377z"/><path d="M319.87288,163.16513v4.09377h-4.09377v-4.09377z"/><path d="M319.87288,159.07136v4.09377h-4.09377v-4.09377z"/><path d="M319.87288,154.97753v4.09377h-4.09377v-4.09377z"/><path d="M315.7791,167.2589v4.09377h-4.09377v-4.09377z"/><path d="M315.7791,163.16513v4.09377h-4.09377v-4.09377z"/><path d="M315.7791,154.97753v4.09377h-4.09377v-4.09377z"/><path d="M311.68533,171.35268v4.09378h-4.09378v-4.09378z"/><path d="M311.68533,167.2589v4.09377h-4.09378v-4.09377z"/><path d="M311.68533,163.16513v4.09377h-4.09378v-4.09377z"/><path d="M311.68533,159.07136v4.09377h-4.09378v-4.09377z"/><path d="M311.68533,154.97753v4.09377h-4.09378v-4.09377z"/><path d="M307.59157,171.35268v4.09378h-4.09377v-4.09378z"/><path d="M307.59157,163.16513v4.09377h-4.09377v-4.09377z"/><path d="M307.59157,159.07136v4.09377h-4.09377v-4.09377z"/><path d="M303.49778,171.35268v4.09378h-4.09377v-4.09378z"/><path d="M303.49778,167.2589v4.09377h-4.09377v-4.09377z"/><path d="M303.49778,159.07136v4.09377h-4.09377v-4.09377z"/><path d="M303.49778,154.97753v4.09377h-4.09377v-4.09377z"/><path d="M299.404,167.2589v4.09377h-4.09377v-4.09377z"/><path d="M299.404,163.16513v4.09377h-4.09377v-4.09377z"/><path d="M299.404,159.07136v4.09377h-4.09377v-4.09377z"/><path d="M319.87288,175.44645v4.09377h-4.09377v-4.09377z"/></g><path d="M344.43551,199.93317v4.09377h-4.09377v-4.09377z" fill="#7b7b7b"/><path d="M344.43551,195.83934v4.09377h-4.09377v-4.09377z" fill="#7b7b7b"/><path d="M336.24798,195.83934v4.09377h-4.09377v-4.09377z" fill="#7b7b7b"/><path d="M332.1542,199.93317v4.09377h-4.09378v-4.09377z" fill="#7b7b7b"/><path d="M332.1542,195.83934v4.09377h-4.09378v-4.09377z" fill="#7b7b7b"/><path d="M328.06042,199.93317v4.09377h-4.09377v-4.09377z" fill="#7b7b7b"/><path d="M323.96665,199.93317v4.09377h-4.09377v-4.09377z" fill="#7b7b7b"/><path d="M323.96665,195.83934v4.09377h-4.09377v-4.09377z" fill="#7b7b7b"/><path d="M319.87288,199.93317v4.09377h-4.09377v-4.09377z" fill="#7b7b7b"/><path d="M319.87288,195.83934v4.09377h-4.09377v-4.09377z" fill="#7b7b7b"/><path d="M315.7791,195.83934v4.09377h-4.09377v-4.09377z" fill="#7b7b7b"/><path d="M311.68533,199.93317v4.09377h-4.09378v-4.09377z" fill="#7b7b7b"/><path d="M311.68533,195.83934v4.09377h-4.09378v-4.09377z" fill="#7b7b7b"/><path d="M307.59157,199.93317v4.09377h-4.09377v-4.09377z" fill="#7b7b7b"/><path d="M303.49778,199.93317v4.09377h-4.09377v-4.09377z" fill="#7b7b7b"/><path d="M303.49778,195.83934v4.09377h-4.09377v-4.09377z" fill="#7b7b7b"/><path d="M299.404,199.93317v4.09377h-4.09377v-4.09377z" fill="#7b7b7b"/></g></g></svg>