<svg version="1.1" xmlns="http://www.w3.org/2000/svg" xmlns:xlink="http://www.w3.org/1999/xlink" width="49.1253" height="49.23842" viewBox="0,0,49.1253,49.23842"><g transform="translate(-295.43735,-155.4133)"><g stroke="none" stroke-miterlimit="10"><path d="" fill="#7b7b7b"/><path d="" fill="#7b7b7b"/><path d="" fill="#7b7b7b"/><path d="" fill="#7b7b7b"/><path d="" fill="#7b7b7b"/><path d="" fill="#7b7b7b"/><path d="" fill="#7b7b7b"/><path d="" fill="#7b7b7b"/><path d="" fill="#7b7b7b"/><path d="" fill="#7b7b7b"/><path d="" fill="#7b7b7b"/><path d="" fill="#7b7b7b"/><path d="" fill="#7b7b7b"/><path d="" fill="#7b7b7b"/><path d="" fill="#7b7b7b"/><path d="" fill="#7b7b7b"/><path d="" fill="#7b7b7b"/><path d="" fill="#7b7b7b"/><g><path d="M344.56265,155.4133v24.67261h-49.12529z" fill="#acacac"/><path d="M344.56265,163.62105v4.09377h-4.09377v-4.09377z" fill="#7b7b7b"/><path d="M344.56265,155.43351v4.09377h-4.09377v-2.07315z" fill="#7b7b7b"/><path d="M340.46887,167.71483v4.09377h-4.09377v-4.09377z" fill="#7b7b7b"/><path d="M340.46887,163.62105v4.09377h-4.09377v-4.09377z" fill="#7b7b7b"/><path d="M340.46887,159.52728v4.09377h-4.09377v-4.09377z" fill="#7b7b7b"/><path d="M336.3751,167.71483v4.09377h-4.09377v-4.09377z" fill="#7b7b7b"/><path d="M336.3751,159.52728v4.09377h-4.09377v-2.02211z" fill="#7b7b7b"/><path d="M332.28132,167.71483v4.09377h-4.09377v-4.09377z" fill="#7b7b7b"/><path d="M332.28132,163.62105v4.09377h-4.09377v-4.09377z" fill="#7b7b7b"/><path d="M328.18754,163.62105v4.09377h-4.09377l-0.00471,-2.07306z" fill="#7b7b7b"/><path d="M328.18754,159.52728z" fill="#7b7b7b"/><path d="M324.09375,167.71483v4.09377h-4.09377v-4.09377z" fill="#7b7b7b"/><path d="M324.09375,165.65622v2.0586h-4.09377z" fill="#7b7b7b"/><path d="M320,167.71483v4.09377h-4.09377v-1.97059z" fill="#7b7b7b"/><path d="M320,171.80861v4.09377h-4.09377v-4.09377z" fill="#502d16"/><path d="M344.56263,175.86513v4.09377h-4.09377v-4.09377z" fill="#7b7b7b"/><path d="M344.56263,171.7713v4.09377h-4.09377v-4.09377z" fill="#7b7b7b"/><path d="M336.3751,171.7713v4.09377h-4.09377v-4.09377z" fill="#7b7b7b"/><path d="M332.28132,175.86513v4.09377h-4.09378v-4.09377z" fill="#7b7b7b"/><path d="M332.28132,171.7713v4.09377h-4.09378v-4.09377z" fill="#7b7b7b"/><path d="M328.18754,175.86513v4.09377h-4.09377v-4.09377z" fill="#7b7b7b"/><path d="M324.09375,175.86513v4.09377h-4.09377v-4.09377z" fill="#7b7b7b"/><path d="M324.09375,171.7713v4.09377h-4.09377v-4.09377z" fill="#7b7b7b"/><path d="M320,175.86513v4.09377h-4.09377v-4.09377z" fill="#7b7b7b"/><path d="M320,171.7713v4.09377h-4.09377v-4.09377z" fill="#7b7b7b"/><path d="M315.90622,171.7713v4.09377h-4.09377v-4.09377z" fill="#7b7b7b"/><path d="M311.81245,175.86513v4.09377h-4.09378v-4.09377z" fill="#7b7b7b"/><path d="M311.81245,171.7713v4.09377h-4.09378v-1.92598z" fill="#7b7b7b"/><path d="M307.71869,175.86513v4.09377h-4.09377v-4.09377z" fill="#7b7b7b"/><path d="M303.6249,175.86513v4.09377h-4.09377l-0.07389,-1.84002z" fill="#7b7b7b"/><path d="M299.53112,178.07712v1.88177h-4.09377z" fill="#7b7b7b"/></g><path d="M344.56265,180.00932v24.64241h-49.12529v-24.64241z" fill="#acacac"/><path d="M344.56265,188.20929v4.09377h-4.09377v-4.09377z" fill="#7b7b7b"/><path d="M344.56265,180.02174v4.09377h-4.09377v-4.09377z" fill="#7b7b7b"/><path d="M340.46887,192.30306v4.09377h-4.09377v-4.09377z" fill="#7b7b7b"/><path d="M340.46887,188.20929v4.09377h-4.09377v-4.09377z" fill="#7b7b7b"/><path d="M340.46887,184.11552v4.09377h-4.09377v-4.09377z" fill="#7b7b7b"/><path d="M336.3751,192.30306v4.09377h-4.09377v-4.09377z" fill="#7b7b7b"/><path d="M336.3751,184.11552v4.09377h-4.09377v-4.09377z" fill="#7b7b7b"/><path d="M332.28132,192.30306v4.09377h-4.09377v-4.09377z" fill="#7b7b7b"/><path d="M332.28132,188.20929v4.09377h-4.09377v-4.09377z" fill="#7b7b7b"/><path d="M332.28132,180.02174v4.09377h-4.09377v-4.09377z" fill="#7b7b7b"/><path d="M328.18754,188.20929v4.09377h-4.09377v-4.09377z" fill="#7b7b7b"/><path d="M328.18754,184.11552v4.09377h-4.09377v-4.09377z" fill="#7b7b7b"/><path d="M328.18754,180.02174v4.09377h-4.09377v-4.09377z" fill="#7b7b7b"/><path d="M324.09377,192.30306v4.09377h-4.09377v-4.09377z" fill="#7b7b7b"/><path d="M324.09377,188.20929v4.09377h-4.09377v-4.09377z" fill="#7b7b7b"/><path d="M324.09377,180.02174v4.09377h-4.09377v-4.09377z" fill="#7b7b7b"/><path d="M320,192.30306v4.09377h-4.09377v-4.09377z" fill="#7b7b7b"/><path d="M320,188.20929v4.09377h-4.09377v-4.09377z" fill="#7b7b7b"/><path d="M320,184.11552v4.09377h-4.09377v-4.09377z" fill="#7b7b7b"/><path d="M320,180.02174v4.09377h-4.09377v-4.09377z" fill="#7b7b7b"/><path d="M315.90622,188.20929v4.09377h-4.09377v-4.09377z" fill="#7b7b7b"/><path d="M315.90622,184.11552v4.09377h-4.09377v-4.09377z" fill="#7b7b7b"/><path d="M311.81245,192.30306v4.09377h-4.09377v-4.09377z" fill="#7b7b7b"/><path d="M311.81245,188.20929v4.09377h-4.09377v-4.09377z" fill="#7b7b7b"/><path d="M311.81245,184.11552v4.09377h-4.09377v-4.09377z" fill="#7b7b7b"/><path d="M311.81245,180.02174v4.09377h-4.09377v-4.09377z" fill="#7b7b7b"/><path d="M307.71869,192.30306v4.09377h-4.09377v-4.09377z" fill="#7b7b7b"/><path d="M307.71869,184.11552v4.09377h-4.09377v-4.09377z" fill="#7b7b7b"/><path d="M307.71869,180.02174v4.09377h-4.09377v-4.09377z" fill="#7b7b7b"/><path d="M303.6249,192.30306v4.09377h-4.09377v-4.09377z" fill="#7b7b7b"/><path d="M303.6249,188.20929v4.09377h-4.09377v-4.09377z" fill="#7b7b7b"/><path d="M303.6249,180.02174v4.09377h-4.09377v-4.09377z" fill="#7b7b7b"/><path d="M299.53112,188.20929v4.09377h-4.09377v-4.09377z" fill="#7b7b7b"/><path d="M299.53112,184.11552v4.09377h-4.09377v-4.09377z" fill="#7b7b7b"/><path d="M299.53112,180.02174v4.09377h-4.09377v-4.09377z" fill="#7b7b7b"/><path d="M320,196.39684v4.09377h-4.09377v-4.09377z" fill="#502d16"/><path d="M344.56263,200.45337v4.09377h-4.09377v-4.09377z" fill="#7b7b7b"/><path d="M344.56263,196.35954v4.09377h-4.09377v-4.09377z" fill="#7b7b7b"/><path d="M336.3751,196.35954v4.09377h-4.09377v-4.09377z" fill="#7b7b7b"/><path d="M332.28132,200.45337v4.09377h-4.09378v-4.09377z" fill="#7b7b7b"/><path d="M332.28132,196.35954v4.09377h-4.09378v-4.09377z" fill="#7b7b7b"/><path d="M328.18754,200.45337v4.09377h-4.09377v-4.09377z" fill="#7b7b7b"/><path d="M324.09377,200.45337v4.09377h-4.09377v-4.09377z" fill="#7b7b7b"/><path d="M324.09377,196.35954v4.09377h-4.09377v-4.09377z" fill="#7b7b7b"/><path d="M320,200.45337v4.09377h-4.09377v-4.09377z" fill="#7b7b7b"/><path d="M320,196.35954v4.09377h-4.09377v-4.09377z" fill="#7b7b7b"/><path d="M315.90622,196.35954v4.09377h-4.09377v-4.09377z" fill="#7b7b7b"/><path d="M311.81245,200.45337v4.09377h-4.09378v-4.09377z" fill="#7b7b7b"/><path d="M311.81245,196.35954v4.09377h-4.09378v-4.09377z" fill="#7b7b7b"/><path d="M307.71869,200.45337v4.09377h-4.09377v-4.09377z" fill="#7b7b7b"/><path d="M303.6249,200.45337v4.09377h-4.09377v-4.09377z" fill="#7b7b7b"/><path d="M303.6249,196.35954v4.09377h-4.09377v-4.09377z" fill="#7b7b7b"/><path d="M299.53112,200.45337v4.09377h-4.09377v-4.09377z" fill="#7b7b7b"/></g></g></svg>