<svg version="1.1" xmlns="http://www.w3.org/2000/svg" xmlns:xlink="http://www.w3.org/1999/xlink" width="49.1253" height="24.67261" viewBox="0,0,49.1253,24.67261"><g transform="translate(-295.23995,-178.79473)"><g stroke="none" stroke-miterlimit="10"><path d="M344.36526,178.79474v24.67261h-49.12529z" fill="#acacac"/><path d="M344.36526,187.00249v4.09377h-4.09377v-4.09377z" fill="#7b7b7b"/><path d="M344.36526,178.81495v4.09377h-4.09377v-2.07315z" fill="#7b7b7b"/><path d="" fill="#7b7b7b"/><path d="M340.27148,191.09627v4.09377h-4.09377v-4.09377z" fill="#7b7b7b"/><path d="M340.27148,187.00249v4.09377h-4.09377v-4.09377z" fill="#7b7b7b"/><path d="M340.27148,182.90872v4.09377h-4.09377v-4.09377z" fill="#7b7b7b"/><path d="M336.17771,191.09627v4.09377h-4.09377v-4.09377z" fill="#7b7b7b"/><path d="M336.17771,182.90872v4.09377h-4.09377v-2.02211z" fill="#7b7b7b"/><path d="" fill="#7b7b7b"/><path d="M332.08393,191.09627v4.09377h-4.09377v-4.09377z" fill="#7b7b7b"/><path d="M332.08393,187.00249v4.09377h-4.09377v-4.09377z" fill="#7b7b7b"/><path d="" fill="#7b7b7b"/><path d="M327.99015,187.00249v4.09377h-4.09377l-0.00471,-2.07306z" fill="#7b7b7b"/><path d="M327.99015,182.90872z" fill="#7b7b7b"/><path d="M323.89637,191.09627v4.09377h-4.09377v-4.09377z" fill="#7b7b7b"/><path d="M323.89637,189.03766v2.0586h-4.09377z" fill="#7b7b7b"/><path d="" fill="#7b7b7b"/><path d="" fill="#7b7b7b"/><path d="M319.80261,191.09627v4.09377h-4.09377v-1.97059z" fill="#7b7b7b"/><path d="" fill="#7b7b7b"/><path d="" fill="#7b7b7b"/><path d="" fill="#7b7b7b"/><path d="M319.80261,195.19005v4.09377h-4.09377v-4.09377z" fill="#502d16"/><path d="" fill="#7b7b7b"/><path d="" fill="#7b7b7b"/><path d="" fill="#7b7b7b"/><path d="" fill="#7b7b7b"/><path d="" fill="#7b7b7b"/><path d="" fill="#7b7b7b"/><path d="" fill="#7b7b7b"/><path d="" fill="#7b7b7b"/><path d="" fill="#7b7b7b"/><path d="" fill="#7b7b7b"/><path d="M344.36524,199.24657v4.09377h-4.09377v-4.09377z" fill="#7b7b7b"/><path d="M344.36524,195.15274v4.09377h-4.09377v-4.09377z" fill="#7b7b7b"/><path d="M336.17771,195.15274v4.09377h-4.09377v-4.09377z" fill="#7b7b7b"/><path d="M332.08393,199.24657v4.09377h-4.09378v-4.09377z" fill="#7b7b7b"/><path d="M332.08393,195.15274v4.09377h-4.09378v-4.09377z" fill="#7b7b7b"/><path d="M327.99015,199.24657v4.09377h-4.09377v-4.09377z" fill="#7b7b7b"/><path d="M323.89637,199.24657v4.09377h-4.09377v-4.09377z" fill="#7b7b7b"/><path d="M323.89637,195.15274v4.09377h-4.09377v-4.09377z" fill="#7b7b7b"/><path d="M319.80261,199.24657v4.09377h-4.09377v-4.09377z" fill="#7b7b7b"/><path d="M319.80261,195.15274v4.09377h-4.09377v-4.09377z" fill="#7b7b7b"/><path d="M315.70883,195.15274v4.09377h-4.09377v-4.09377z" fill="#7b7b7b"/><path d="M311.61506,199.24657v4.09377h-4.09378v-4.09377z" fill="#7b7b7b"/><path d="M311.61506,195.15274v4.09377h-4.09378v-1.92598z" fill="#7b7b7b"/><path d="M307.5213,199.24657v4.09377h-4.09377v-4.09377z" fill="#7b7b7b"/><path d="M303.42751,199.24657v4.09377h-4.09377l-0.07389,-1.84002z" fill="#7b7b7b"/><path d="M299.33373,201.45856v1.88177h-4.09377z" fill="#7b7b7b"/></g></g></svg>