<svg version="1.1" xmlns="http://www.w3.org/2000/svg" xmlns:xlink="http://www.w3.org/1999/xlink" width="56.19403" height="54.45394" viewBox="0,0,56.19403,54.45394"><g transform="translate(-338.26249,-99.13737)"><g stroke="none" stroke-miterlimit="10"><path d="M384.45652,102.5c5.52285,0 10,4.47715 10,10v39.4853c-4.59865,0.5166 -9.24562,1.53626 -13.85398,1.59143c-9.8436,0.11784 -18.43868,-0.48924 -27.96043,-1.44142l-1.46985,-0.16332c-4.52053,-0.56507 -8.82705,-0.69358 -12.90977,-0.17273c0.12691,-0.61068 0.19361,-1.24344 0.19361,-1.89177c0,-0.12686 -0.00255,-0.25312 -0.00761,-0.37874c0.09423,-0.06339 0.10786,-0.186 0.10786,-0.186l0.03153,-0.2838c0.08819,-0.88235 0.41872,-2.05919 0.27392,-2.99045c0.00183,-0.0318 0.00393,-0.06253 0.00638,-0.09205c0.00519,-0.02513 0.0104,-0.05027 0.01562,-0.07541l0.04872,-0.00609l-0.01779,-0.14235c0.26629,-1.27468 0.54852,-2.55863 0.47221,-3.83008c0.01599,-0.27179 0.02714,-0.54367 0.05747,-0.81629c0.28113,-0.88461 0.43282,-1.82689 0.43282,-2.80461c0,-0.0268 -0.00011,-0.05357 -0.00034,-0.08031c0.25695,-0.84917 0.3951,-1.74995 0.3951,-2.68299c0,-0.26069 -0.01078,-0.51886 -0.03193,-0.77409c0.05367,-0.34424 0.08837,-0.69476 0.10297,-1.05046c0.0168,-0.1509 0.03311,-0.30194 0.04893,-0.45308c0.15298,-0.31763 0.28019,-0.65255 0.37093,-1.01553c0.79751,-3.19003 0.92676,-6.25049 0.89437,-9.36891c0.62905,-1.2492 0.98327,-2.66054 0.98327,-4.15461c0,-0.50402 -0.04031,-0.99862 -0.11789,-1.48076c0.23103,-0.80877 0.35474,-1.66282 0.35474,-2.54577c0,-0.23987 -0.00913,-0.47761 -0.02706,-0.71289l0.03819,-0.03393c-0.00044,-0.41491 0.0253,-0.82805 0.04395,-1.24218c0.37281,-1.00326 0.57654,-2.08874 0.57654,-3.2218c0,-0.43165 -0.02957,-0.8564 -0.08678,-1.27232c0.15231,-0.6487 0.23635,-1.32372 0.2441,-2.01705c0.11973,-0.01121 0.21492,-0.10685 0.22544,-0.22678l0.03111,-0.31106l-0.00144,-0.00014l0.00177,-0.00339c0.02291,-0.32103 0.0597,-0.61306 0.06465,-0.89275c0.05262,-0.40842 0.05884,-0.86731 0.07018,-1.24437l0.01495,-0.10964c0.07853,-0.30172 0.13553,-0.60329 0.14548,-0.90682z" fill="#000000" stroke-width="0"/><text transform="translate(361.17122,135.29457) scale(0.8312,0.8312)" font-size="40" xml:space="preserve" fill="#ff00e9" stroke-width="1" font-family="Sans Serif" font-weight="normal" text-anchor="start"><tspan x="0" dy="0">?</tspan></text></g></g></svg>