<svg version="1.1" xmlns="http://www.w3.org/2000/svg" xmlns:xlink="http://www.w3.org/1999/xlink" width="81.38656" height="59.47368" viewBox="0,0,81.38656,59.47368"><g transform="translate(-290.26316,-150.26316)"><g stroke-miterlimit="10"><path d="M290.26316,180c0,-16.4232 13.31363,-29.73684 29.73684,-29.73684c16.4232,0 29.73684,13.31364 29.73684,29.73684c0,16.4232 -13.31363,29.73684 -29.73684,29.73684c-16.4232,0 -29.73684,-13.31364 -29.73684,-29.73684z" fill="#2176ff" stroke="none" stroke-width="0"/><path d="M339.64384,164.73499c0,0 22.64481,8.90242 29.41627,11.67855c3.7525,1.53843 3.23363,5.46585 -0.31229,6.91958c-6.709,2.75052 -29.10399,11.93189 -29.10399,11.93189z" fill="#2176ff" stroke="none" stroke-width="0"/><g><path d="M327.93977,192.73829c-2.04324,1.23397 -8.0464,-5.14424 -8.0464,-5.14424c0,0 -6.99516,5.27726 -8.80129,3.71472c-1.80768,-1.56248 2.40547,-9.24515 2.40547,-9.24515c0,0 -7.17945,-5.02242 -6.2516,-7.22269c0.92786,-2.20195 9.53521,-0.56892 9.53521,-0.56892c0,0 2.5561,-8.37976 4.93587,-8.17942c2.38301,0.2019 3.49036,8.89418 3.49036,8.89418c0,0 8.7596,-0.15866 9.30127,2.16823c0.54646,2.32533 -7.37818,6.06569 -7.37818,6.06569c0,0 2.85736,8.28363 0.80927,9.5176z" fill="#ffff00" stroke="#000000" stroke-width="1.28786"/><path d="M323.96063,186.65978c-1.02884,0.62019 -4.04647,-2.58652 -4.04647,-2.58652c0,0 -3.51438,2.65223 -4.42146,1.86697c-0.90701,-0.78525 1.20833,-4.6442 1.20833,-4.6442c0,0 -3.60572,-2.52567 -3.14101,-3.62979c0.46639,-1.1058 4.79003,-0.28527 4.79003,-0.28527c0,0 1.2853,-4.21153 2.48237,-4.10893c1.19552,0.10092 1.75,4.46793 1.75,4.46793c0,0 4.40385,-0.07858 4.67624,1.08968c0.27569,1.16988 -3.70508,3.04806 -3.70508,3.04806c0,0 1.43269,4.16188 0.40703,4.78207z" fill="#ffffff" stroke="none" stroke-width="2.57572"/></g></g></g></svg>