<svg version="1.1" xmlns="http://www.w3.org/2000/svg" xmlns:xlink="http://www.w3.org/1999/xlink" width="67" height="67" viewBox="0,0,67,67"><g transform="translate(-286.5,-146.5)"><g stroke="none" stroke-miterlimit="10"><path d="M294.02809,213.5c-4.15765,0 -7.52809,-3.37044 -7.52809,-7.52809v-51.94382c0,-4.15765 3.37044,-7.52809 7.52809,-7.52809h51.94382c4.15765,0 7.52809,3.37044 7.52809,7.52809v51.94382c0,4.15765 -3.37044,7.52809 -7.52809,7.52809z" fill="#ffde00" fill-rule="nonzero" stroke-width="0"/><g stroke-width="1"><path d="M297.99478,162.43479h6.84575c0,-1.09642 0.00822,-2.22847 0.02467,-3.39615v-4.30892h30.06786v4.31303c0,1.20058 0,2.32714 0,3.39615h7.08833c0.67441,0.00139 1.22941,0.53108 1.26225,1.20469c0.11617,1.90611 0.06112,3.8188 -0.16446,5.71507c-0.19421,1.78817 -0.73169,3.52206 -1.58295,5.10656c-0.84095,1.50205 -2.09719,2.72974 -3.61818,3.53594c-1.77463,0.89262 -3.72878,1.37062 -5.71507,1.39793c-1.34448,2.23258 -3.13712,3.28925 -5.23402,5.20935c-2.53683,1.93655 -4.4446,3.39615 -2.96033,7.86542h2.21613c1.77385,0.00452 3.21072,1.44139 3.21524,3.21524v1.29514h0.31659c0.839,-0.00379 1.6451,0.32605 2.2408,0.91688v0c0.59612,0.59316 0.93064,1.39985 0.92921,2.2408v2.15035c0,0.40192 -0.32582,0.72775 -0.72775,0.72775h-24.59537c-0.40192,0 -0.72775,-0.32582 -0.72775,-0.72775v-2.15035c-0.00188,-0.84104 0.3327,-1.6479 0.92921,-2.2408v0c0.5919,-0.5955 1.39707,-0.93 2.23669,-0.92921h0.31659v-1.28281c0,-0.85115 0.34052,-1.66692 0.94566,-2.26547v0c0.60078,-0.60132 1.41546,-0.93991 2.26547,-0.94155h2.49161c1.32392,-4.21846 -0.41116,-5.5835 -2.8082,-7.47071c-2.15927,-1.46822 -3.97903,-3.38191 -5.33681,-5.61228c-2.04954,-0.00657 -4.06895,-0.49383 -5.89598,-1.4226c-1.51457,-0.80491 -2.76185,-2.03362 -3.58939,-3.53594c-0.83471,-1.57986 -1.35946,-3.30483 -1.54595,-5.08189c-0.21656,-1.86669 -0.26884,-3.74879 -0.15624,-5.62462v-0.03289c0,-0.33657 0.13398,-0.6593 0.37236,-0.89691c0.23838,-0.23761 0.56154,-0.37055 0.89811,-0.36945zM334.79327,167.06441c-0.08986,2.48394 -0.36473,4.95773 -0.82231,7.40081c0.72612,-0.13658 1.4222,-0.40109 2.05578,-0.7812c0.63573,-0.3927 1.15853,-0.94384 1.51717,-1.5994c0.40754,-0.76924 0.67617,-1.60435 0.79353,-2.46694c0.1277,-0.85081 0.19639,-1.70944 0.20558,-2.56973h-3.74975zM304.94743,167.06441h-3.33859c0.0073,0.86236 0.0691,1.72339 0.18502,2.57795c0.10395,0.85855 0.35427,1.69294 0.74008,2.46694c0.33989,0.652 0.84632,1.20241 1.46783,1.59529c0.59747,0.365 1.25429,0.62245 1.94066,0.76064c-0.57495,-2.42808 -0.90824,-4.9071 -0.995,-7.40081z" fill="#f39d00" fill-rule="nonzero"/><path d="M304.93099,165.79394h-4.07456c-0.2793,0 -0.50572,0.22642 -0.50572,0.50572c0,2.54095 0.19736,4.72419 1.09368,6.4017c0.89632,1.67752 2.45871,2.79175 5.1559,3.15357c0.38681,0.80846 0.86702,1.5688 1.43082,2.26547c-4.48983,-0.12746 -7.06778,-1.78853 -8.47804,-4.30069c-1.50483,-2.64373 -1.74741,-6.30303 -1.55828,-10.11856h6.93621zM334.85083,163.70527h7.16645c0.18502,3.81553 -0.0699,7.46249 -1.57884,10.12267c-1.43082,2.51628 -4.017,4.17735 -8.53972,4.29658c0.60293,-0.68683 1.11301,-1.44988 1.51717,-2.26958c2.68896,-0.36593 4.28425,-1.47194 5.22168,-3.14123c0.93744,-1.66929 1.16768,-3.86487 1.16768,-6.41404c-0.00226,-0.27769 -0.22802,-0.50162 -0.50572,-0.50161h-4.44871z" fill="#f9c809" fill-rule="nonzero"/><path d="M329.44001,196.98015h0.31659c0.83959,-0.0027 1.64578,0.32866 2.2408,0.92099v0c0.59612,0.59316 0.93064,1.39985 0.92921,2.2408v4.37059c0,0.40192 -0.32582,0.72775 -0.72775,0.72775h-24.59537c-0.40192,0 -0.72775,-0.32582 -0.72775,-0.72775v-4.35826c-0.00519,-0.84531 0.32965,-1.65723 0.92921,-2.25314v0c0.5919,-0.5955 1.39707,-0.93 2.23669,-0.92921h19.39835z" fill="#222222" fill-rule="nonzero"/><path d="M328.45324,199.13049c0.46305,0.00489 0.90579,0.19084 1.23347,0.51806c0.32909,0.32641 0.51538,0.76996 0.51806,1.23347v2.17091h-20.59071v-2.17091c0.00158,-0.46292 0.18636,-0.90638 0.51395,-1.23347v0c0.32605,-0.32912 0.77019,-0.51417 1.23347,-0.51395h14.35758z" fill="#ead79e" fill-rule="nonzero"/><path d="M313.98465,184.12329c-0.96981,-0.73195 -1.89135,-1.52577 -2.75886,-2.37648c-1.4932,-1.50353 -2.66663,-3.29374 -3.4496,-5.2628c-0.95388,-2.37237 -1.64463,-5.47249 -1.83787,-9.66217v-11.00665h1.90365c2.17502,15.44714 3.03433,26.5977 12.14967,29.83761v7.31447h-2.46694c1.43082,-4.93388 -0.65785,-6.5785 -3.54006,-8.84397z" fill="#f8b705" fill-rule="nonzero"/><path d="M320.00809,192.96726v-7.32269h-0.02878v-0.06167c-0.3088,-0.08283 -0.61225,-0.18443 -0.90866,-0.30426c-0.79449,-0.35207 -1.54855,-0.78906 -2.24902,-1.30337c-1.55298,-1.27272 -2.85407,-2.82482 -3.83609,-4.57617c-2.88221,-5.42315 -3.73741,-13.60105 -5.14357,-23.58392h26.04264v11.29035c0,10.78463 -4.29658,14.06566 -7.60639,16.59016c-3.00966,2.28192 -5.29569,4.04578 -3.70041,9.27157h-2.58617z" fill="#fac809" fill-rule="nonzero"/><path d="M320.62894,163.0063l1.15124,2.82464l3.03844,0.23025c0.32373,0.02492 0.5983,0.24749 0.68967,0.55906c0.09137,0.31157 -0.01951,0.64717 -0.27851,0.84298l-2.29836,1.94888l0.72364,2.9521c0.04816,0.20175 0.01412,0.41436 -0.09463,0.59098c-0.10875,0.17662 -0.28327,0.30274 -0.4851,0.35056c-0.21017,0.05171 -0.43239,0.01293 -0.61262,-0.1069l-2.55739,-1.61173l-2.58617,1.5994c-0.17654,0.10946 -0.38942,0.14411 -0.59156,0.09627c-0.20214,-0.04784 -0.37691,-0.17421 -0.48567,-0.35119c-0.11125,-0.17608 -0.14544,-0.39009 -0.09457,-0.59207l0.71952,-2.9521l-2.32714,-1.97355c-0.23961,-0.20662 -0.33183,-0.53684 -0.23394,-0.83771c0.09789,-0.30087 0.36678,-0.5136 0.6821,-0.53966l3.03844,-0.20558l1.15535,-2.81231c0.12269,-0.29103 0.4078,-0.48025 0.72364,-0.48025c0.31584,0 0.60094,0.18921 0.72364,0.48025z" fill="#f39d00" fill-rule="nonzero"/><path d="M319.9053,163.30645l1.33626,3.25636l3.5195,0.26725l-2.69307,2.28192l0.83465,3.42082l-2.99733,-1.85431l-2.99733,1.85431l0.83465,-3.42082l-2.69307,-2.28192l3.51539,-0.26725l1.34037,-3.25636v0z" fill="#ffffff" fill-rule="nonzero"/><path d="M328.17776,174.30899l-0.02878,0.04112c-0.68588,-0.47267 -1.62222,-0.32235 -2.12568,0.34126l-0.04112,-0.03289c0.23877,-0.32493 0.33116,-0.73473 0.25492,-1.13068c-0.05268,-0.39878 -0.26671,-0.75847 -0.59207,-0.995c0.38232,0.0933 0.76936,0.16604 1.15946,0.21791c0.39929,-0.05416 0.75891,-0.26964 0.995,-0.59618l0.04112,0.02878c-0.4692,0.68583 -0.32124,1.61869 0.33715,2.12568zM331.32311,169.03796l-0.02878,0.04112c-0.68433,-0.47578 -1.62215,-0.32704 -2.12568,0.33715l-0.04112,-0.02878c0.47267,-0.68588 0.32235,-1.62222 -0.34126,-2.12568l0.02878,-0.04112c0.68718,0.47314 1.62484,0.3229 2.12979,-0.34126l0.037,0.03289c-0.47267,0.68588 -0.32235,1.62222 0.34126,2.12568zM331.34778,163.46268l-0.05345,0.07401c-1.25437,-0.86454 -2.96664,-0.59123 -3.88954,0.62085l-0.07401,-0.05345c0.43139,-0.59206 0.60083,-1.33524 0.46872,-2.05578c-0.09572,-0.73168 -0.49015,-1.39105 -1.08956,-1.82142l0.05345,-0.07401c1.25437,0.86454 2.96664,0.59123 3.88954,-0.62085l0.07401,0.05345c-0.43139,0.59206 -0.60083,1.33524 -0.46872,2.05578c0.09667,0.73135 0.49089,1.39037 1.08956,1.82142z" fill="#ffffff" fill-rule="evenodd"/></g></g></g></svg>