<svg version="1.1" xmlns="http://www.w3.org/2000/svg" xmlns:xlink="http://www.w3.org/1999/xlink" width="49.1253" height="24.64241" viewBox="0,0,49.1253,24.64241"><g transform="translate(-295.43735,-180.00931)"><g stroke="none" stroke-miterlimit="10"><path d="" fill="#7b7b7b"/><path d="" fill="#7b7b7b"/><path d="" fill="#7b7b7b"/><path d="" fill="#7b7b7b"/><path d="" fill="#7b7b7b"/><path d="" fill="#7b7b7b"/><path d="" fill="#7b7b7b"/><path d="" fill="#7b7b7b"/><path d="" fill="#7b7b7b"/><path d="" fill="#7b7b7b"/><path d="" fill="#7b7b7b"/><path d="" fill="#7b7b7b"/><path d="" fill="#7b7b7b"/><path d="" fill="#7b7b7b"/><path d="" fill="#7b7b7b"/><path d="" fill="#7b7b7b"/><path d="" fill="#7b7b7b"/><path d="" fill="#7b7b7b"/><path d="M344.56265,180.00931v24.64241h-49.12529v-24.64241z" fill="#acacac"/><path d="M344.56265,188.20929v4.09377h-4.09377v-4.09377z" fill="#7b7b7b"/><path d="M344.56265,180.02174v4.09377h-4.09377v-4.09377z" fill="#7b7b7b"/><path d="M340.46887,192.30306v4.09377h-4.09377v-4.09377z" fill="#7b7b7b"/><path d="M340.46887,188.20929v4.09377h-4.09377v-4.09377z" fill="#7b7b7b"/><path d="M340.46887,184.11552v4.09377h-4.09377v-4.09377z" fill="#7b7b7b"/><path d="M336.3751,192.30306v4.09377h-4.09377v-4.09377z" fill="#7b7b7b"/><path d="M336.3751,184.11552v4.09377h-4.09377v-4.09377z" fill="#7b7b7b"/><path d="M332.28132,192.30306v4.09377h-4.09377v-4.09377z" fill="#7b7b7b"/><path d="M332.28132,188.20929v4.09377h-4.09377v-4.09377z" fill="#7b7b7b"/><path d="M332.28132,180.02174v4.09377h-4.09377v-4.09377z" fill="#7b7b7b"/><path d="M328.18754,188.20929v4.09377h-4.09377v-4.09377z" fill="#7b7b7b"/><path d="M328.18754,184.11552v4.09377h-4.09377v-4.09377z" fill="#7b7b7b"/><path d="M328.18754,180.02174v4.09377h-4.09377v-4.09377z" fill="#7b7b7b"/><path d="M324.09377,192.30306v4.09377h-4.09377v-4.09377z" fill="#7b7b7b"/><path d="M324.09377,188.20929v4.09377h-4.09377v-4.09377z" fill="#7b7b7b"/><path d="M324.09377,180.02174v4.09377h-4.09377v-4.09377z" fill="#7b7b7b"/><path d="M320,192.30306v4.09377h-4.09377v-4.09377z" fill="#7b7b7b"/><path d="M320,188.20929v4.09377h-4.09377v-4.09377z" fill="#7b7b7b"/><path d="M320,184.11552v4.09377h-4.09377v-4.09377z" fill="#7b7b7b"/><path d="M320,180.02174v4.09377h-4.09377v-4.09377z" fill="#7b7b7b"/><path d="M315.90622,188.20929v4.09377h-4.09377v-4.09377z" fill="#7b7b7b"/><path d="M315.90622,184.11552v4.09377h-4.09377v-4.09377z" fill="#7b7b7b"/><path d="M311.81245,192.30306v4.09377h-4.09377v-4.09377z" fill="#7b7b7b"/><path d="M311.81245,188.20929v4.09377h-4.09377v-4.09377z" fill="#7b7b7b"/><path d="M311.81245,184.11552v4.09377h-4.09377v-4.09377z" fill="#7b7b7b"/><path d="M311.81245,180.02174v4.09377h-4.09377v-4.09377z" fill="#7b7b7b"/><path d="M307.71869,192.30306v4.09377h-4.09377v-4.09377z" fill="#7b7b7b"/><path d="M307.71869,184.11552v4.09377h-4.09377v-4.09377z" fill="#7b7b7b"/><path d="M307.71869,180.02174v4.09377h-4.09377v-4.09377z" fill="#7b7b7b"/><path d="M303.6249,192.30306v4.09377h-4.09377v-4.09377z" fill="#7b7b7b"/><path d="M303.6249,188.20929v4.09377h-4.09377v-4.09377z" fill="#7b7b7b"/><path d="M303.6249,180.02174v4.09377h-4.09377v-4.09377z" fill="#7b7b7b"/><path d="M299.53112,188.20929v4.09377h-4.09377v-4.09377z" fill="#7b7b7b"/><path d="M299.53112,184.11552v4.09377h-4.09377v-4.09377z" fill="#7b7b7b"/><path d="M299.53112,180.02174v4.09377h-4.09377v-4.09377z" fill="#7b7b7b"/><path d="M320,196.39684v4.09377h-4.09377v-4.09377z" fill="#502d16"/><path d="M344.56263,200.45337v4.09377h-4.09377v-4.09377z" fill="#7b7b7b"/><path d="M344.56263,196.35954v4.09377h-4.09377v-4.09377z" fill="#7b7b7b"/><path d="M336.3751,196.35954v4.09377h-4.09377v-4.09377z" fill="#7b7b7b"/><path d="M332.28132,200.45337v4.09377h-4.09378v-4.09377z" fill="#7b7b7b"/><path d="M332.28132,196.35954v4.09377h-4.09378v-4.09377z" fill="#7b7b7b"/><path d="M328.18754,200.45337v4.09377h-4.09377v-4.09377z" fill="#7b7b7b"/><path d="M324.09377,200.45337v4.09377h-4.09377v-4.09377z" fill="#7b7b7b"/><path d="M324.09377,196.35954v4.09377h-4.09377v-4.09377z" fill="#7b7b7b"/><path d="M320,200.45337v4.09377h-4.09377v-4.09377z" fill="#7b7b7b"/><path d="M320,196.35954v4.09377h-4.09377v-4.09377z" fill="#7b7b7b"/><path d="M315.90622,196.35954v4.09377h-4.09377v-4.09377z" fill="#7b7b7b"/><path d="M311.81245,200.45337v4.09377h-4.09378v-4.09377z" fill="#7b7b7b"/><path d="M311.81245,196.35954v4.09377h-4.09378v-4.09377z" fill="#7b7b7b"/><path d="M307.71869,200.45337v4.09377h-4.09377v-4.09377z" fill="#7b7b7b"/><path d="M303.6249,200.45337v4.09377h-4.09377v-4.09377z" fill="#7b7b7b"/><path d="M303.6249,196.35954v4.09377h-4.09377v-4.09377z" fill="#7b7b7b"/><path d="M299.53112,200.45337v4.09377h-4.09377v-4.09377z" fill="#7b7b7b"/></g></g></svg>