<svg version="1.1" xmlns="http://www.w3.org/2000/svg" xmlns:xlink="http://www.w3.org/1999/xlink" width="78.30602" height="52.09542" viewBox="0,0,78.30602,52.09542"><defs><linearGradient x1="360.04436" y1="103.69915" x2="366.20331" y2="127.71964" gradientUnits="userSpaceOnUse" id="color-1"><stop offset="0" stop-color="#0051ff"/><stop offset="1" stop-color="#00b90f"/></linearGradient></defs><g transform="translate(-316.16087,-102.03947)"><g stroke-miterlimit="10"><path d="M384.57388,102.7044c5.46376,0 9.89301,4.47715 9.89301,10l0,40.67816c-1.45842,-1.16888 -4.39022,-1.47886 -6.1276,-1.7934c-1.75961,-0.31856 -3.10346,0.35177 -4.41225,1.08413c-0.92476,-0.28227 -1.90642,-0.43413 -2.92354,-0.43413c-1.48535,0 -2.89506,0.32384 -4.16238,0.90477c-1.15276,-0.4638 -2.41185,-0.71905 -3.73056,-0.71905c-2.07246,0 -3.99768,0.63045 -5.59432,1.71002c-9.43496,-0.01037 -18.72619,-1.36659 -28.11318,-1.71002c-2.1879,-0.08005 -4.37044,0.02055 -6.55517,0.15104c-0.04332,-0.07437 -0.12391,-0.12435 -0.21618,-0.12435h-0.2925v0.02811l-0.04462,0.00448c-1.22909,-0.33676 -2.8444,-0.28507 -4.45156,-0.15068c-1.39764,-0.096 -2.90104,-0.16874 -4.06381,-0.06325c-0.56609,-0.00491 -1.07187,0.02799 -1.4734,0.11622c-0.11935,0.00024 -0.23852,0.00102 -0.35767,0.0032c-0.03752,-0.03537 -0.08597,-0.05927 -0.13976,-0.06608l-0.49134,-0.07019l-0.0014,0.00977c-0.15806,-0.02333 -0.36723,-0.05922 -0.60455,-0.10129c-0.15948,-0.03382 -0.32071,-0.06234 -0.48307,-0.08649c-0.57221,-0.10268 -1.20783,-0.21523 -1.6728,-0.27254c-0.07287,-0.05438 -0.16072,-0.10745 -0.26535,-0.15797c-0.0002,-0.08911 -0.0195,-0.16878 -0.06281,-0.23125c-0.01504,-0.02168 -0.0303,-0.04229 -0.04577,-0.06186c-0.15699,-0.76026 -1.14153,-1.22171 -1.28411,-0.55531c-0.07586,-0.01255 -0.14569,-0.01498 -0.20845,-0.0084c-0.03162,-0.01589 -0.06708,-0.02526 -0.10462,-0.02637c-0.0557,-0.16616 -0.13401,-0.34947 -0.22542,-0.57747l-0.09348,-0.3116c-0.00697,-0.02535 -0.01783,-0.04908 -0.0319,-0.07052c0.02682,-0.19211 0.04759,-0.38447 0.05945,-0.57829c0.01467,-0.04797 0.02968,-0.09667 0.04526,-0.14625l0.02275,0.00479l0.10192,-0.48411c0.00422,-0.01821 0.00645,-0.03718 0.00645,-0.05667c0,-0.06752 -0.02677,-0.12879 -0.07027,-0.17377c0.19347,-0.88312 0.41505,-1.78994 0.49402,-2.67616c0.2859,-1.10207 0.53007,-2.24139 0.49339,-3.29461l0.0639,0.00737l0.05688,-0.493c0.00137,-0.01059 0.00208,-0.0214 0.00208,-0.03236c0,-0.07917 -0.0368,-0.14975 -0.09423,-0.19556c0.02101,-0.21895 0.03173,-0.43476 0.02956,-0.64615c0.00053,-0.04359 0.00007,-0.08711 -0.00144,-0.13055l0.01694,-0.06775l0.08168,0v-0.3575c0,-0.01764 -0.00183,-0.03486 -0.0053,-0.05146l0.00436,-0.05663c0.00063,-0.00722 0.00095,-0.01453 0.00095,-0.02191c0,-0.08396 -0.04139,-0.15825 -0.10487,-0.20359c0.14976,-0.55531 0.26453,-1.12748 0.25408,-1.66254c0.00975,-0.03316 0.01989,-0.06528 0.03058,-0.09616l0.04648,0.00465l0.03217,-0.32165c0.00104,-0.00926 0.00158,-0.01868 0.00158,-0.02822c0,-0.08123 -0.03874,-0.15342 -0.09876,-0.19908c0.12948,-0.44791 0.25234,-0.89814 0.3324,-1.35136c0.06586,-0.28861 0.12796,-0.56607 0.15811,-0.84687l0.00981,0.00151l0.06308,-0.409l0.02162,0.00216l0.03217,-0.32165c0.00104,-0.00926 0.00158,-0.01868 0.00158,-0.02822c0,-0.12338 -0.08937,-0.22588 -0.20691,-0.2463c0.24117,-0.87769 0.47121,-1.80675 0.44702,-2.66692l0.08425,0.00602l0.03232,-0.45243c0.00054,-0.00672 0.00082,-0.01352 0.00082,-0.02039c0,-0.09579 -0.05387,-0.17899 -0.13297,-0.22097c-0.00103,-0.02739 -0.00228,-0.05475 -0.00375,-0.08209l0.07442,0.00438l0.02923,-0.49695c0.00037,-0.00557 0.00056,-0.0112 0.00056,-0.01687c0,-0.02379 -0.00332,-0.04681 -0.00953,-0.06861c0.17847,-0.78051 0.4032,-1.61679 0.35105,-2.37442l0.02367,-0.12448l0.05731,0v-0.325c0,-0.04179 -0.01026,-0.08119 -0.02839,-0.11581c0.0065,-0.05343 0.01288,-0.10724 0.01913,-0.16138c0.03209,-0.03172 0.05564,-0.07206 0.06688,-0.11727l0.09607,-0.35226l-0.00646,-0.00176l0.01109,-0.01853c0.07287,-0.71747 0.17645,-1.41952 0.10182,-2.11222c0.00575,-0.0381 0.01179,-0.07507 0.01818,-0.11077l0.04667,0v-0.4225c0,-0.0801 -0.03767,-0.1514 -0.09626,-0.19716c0.07207,-0.75605 0.18667,-1.49892 0.28403,-2.24931c0.03882,-0.11132 0.07055,-0.23967 0.1007,-0.40132l0.03313,-0.19862c0,0 0.01946,-0.11676 -0.04875,-0.20299l0.01473,-0.08104c0.00322,-0.01602 0.00491,-0.0326 0.00491,-0.04957c0,-0.02984 -0.00523,-0.05845 -0.01481,-0.08498l0.06083,-0.36531c0.00274,-0.01482 0.00417,-0.03009 0.00417,-0.0457c0,-0.01571 -0.00145,-0.03109 -0.00422,-0.04599c0.05208,-0.28614 0.09116,-0.55803 0.10235,-0.83592c0.62265,-1.31537 0.7104,-2.82653 1.05233,-4.21406c0.00401,-0.66774 -0.11199,-1.65829 -0.166,-2.66011c0.04617,-0.39077 0.08007,-0.78662 0.13345,-1.20694c0,0 0.00551,-0.04408 -0.00669,-0.09739c0.0104,-0.05134 0.02148,-0.10454 0.03271,-0.15893c0.01645,-0.06721 0.03048,-0.1386 0.04251,-0.2124c0.04455,-0.23438 0.07955,-0.47437 0.06572,-0.67121c0.00281,-0.04987 0.00529,-0.09845 0.00758,-0.14519c0.00575,-0.03229 0.01177,-0.06449 0.01818,-0.09652l-0.00048,-0.00232l0.00088,0.00016l0.06412,-0.35265c0.00322,-0.01602 0.00491,-0.0326 0.00491,-0.04957c0,-0.02296 -0.0031,-0.0452 -0.00889,-0.06632c0.02876,-0.05123 0.0595,-0.09991 0.09233,-0.14587c0,0 0.13796,-0.19314 -0.04316,-0.33746c0.41083,-2.08559 0.83694,-4.42051 0.90513,-6.51485z" fill="#000000" stroke="none" stroke-width="NaN" stroke-linecap="butt"/><path d="" fill="#000000" stroke="none" stroke-width="NaN" stroke-linecap="butt"/><path d="" fill="#000000" stroke="none" stroke-width="NaN" stroke-linecap="butt"/><path d="" fill="#000000" stroke="none" stroke-width="0" stroke-linecap="butt"/><path d="" fill="#000000" stroke="none" stroke-width="0" stroke-linecap="butt"/><path d="" fill="#000000" stroke="none" stroke-width="0" stroke-linecap="butt"/><path d="" fill="#000000" stroke="none" stroke-width="0" stroke-linecap="butt"/><path d="" fill="#000000" stroke="none" stroke-width="0" stroke-linecap="butt"/><path d="" fill="#000000" stroke="none" stroke-width="0" stroke-linecap="butt"/><path d="M368.06376,127.24261l-17.42724,-10.31422l7.27885,-12.29846c0.35815,-0.60503 1.13905,-0.80526 1.74406,-0.44718l1.58329,0.93692c0.45546,0.26963 0.69666,0.79275 0.60578,1.31418l-0.14331,0.82271l0.60846,-0.51219c0.41376,-0.34854 1.00269,-0.39729 1.46835,-0.12169l5.04399,2.98526c0.52357,0.30973 0.75471,0.94671 0.55187,1.52015l-1.62434,4.59183l3.2133,-3.64269c0.40422,-0.45816 1.0773,-0.56458 1.60318,-0.25334l2.32532,1.37623c0.60511,0.35813 0.80534,1.13903 0.44718,1.74406zM366.70842,129.53251l-2.10717,3.56034c-0.35807,0.60501 -1.13905,0.80526 -1.74406,0.44718l-3.37719,-1.99877c-0.6491,-0.3841 -1.42781,-0.4508 -2.13771,-0.18387c-0.70751,0.26666 -1.24822,0.83123 -1.48333,1.54912c-3.00937,9.1888 -3.55701,10.11422 -3.73701,10.41824c-1.28968,2.17932 -4.11408,2.90719 -6.29778,1.61477c-2.18155,-1.29121 -2.90592,-4.11633 -1.61477,-6.29778c0.17984,-0.30398 0.72729,-1.22909 7.33472,-8.28903c0.51741,-0.5529 0.75299,-1.29903 0.64624,-2.0472c-0.1068,-0.74868 -0.54122,-1.39899 -1.19189,-1.78408l-3.37719,-1.99877c-0.29064,-0.17187 -0.50098,-0.4523 -0.58484,-0.77936c-0.08386,-0.32705 -0.0343,-0.67404 0.13768,-0.96461l2.10711,-3.56023zM349.13841,139.33968c-0.85522,-0.50623 -1.95889,-0.22324 -2.46509,0.63206c-0.50623,0.85522 -0.22324,1.95889 0.63206,2.46509c0.85522,0.50623 1.95889,0.22324 2.46509,-0.63206c0.50621,-0.8553 0.22322,-1.95897 -0.63206,-2.46509z" fill="url(#color-1)" stroke="none" stroke-width="1" stroke-linecap="butt"/><path d="M322.83912,103.03948l-5.67825,46.90229" fill="none" stroke="#ffffff" stroke-width="2" stroke-linecap="round"/></g></g></svg>