<svg version="1.1" xmlns="http://www.w3.org/2000/svg" xmlns:xlink="http://www.w3.org/1999/xlink" width="78.79666" height="52.76866" viewBox="0,0,78.79666,52.76866"><g transform="translate(-245.04246,-102.03947)"><g stroke-miterlimit="10"><g><path d="M245.04246,112.7044c0,-5.52285 4.42925,-10 9.89301,-10l68.43613,0c-0.00176,0.13299 0.00209,0.26891 0.00797,0.41332l0.21637,0.29302c0,0 0.04209,0.05262 0.10989,0.08136c-0.34398,1.00601 -0.41591,2.54923 -0.42831,3.67787c-0.10651,0.35967 -0.15121,0.76295 -0.15151,1.1641c-0.39904,0.42956 -0.5226,1.30718 -0.30526,1.8297c-0.062,0.2352 -0.11627,0.46661 -0.15457,0.69163l0.05335,0.25191c0,0 0.01213,0.0364 0.04115,0.07593c-0.06147,0.421 -0.10266,0.8425 -0.1302,1.26897c-0.02255,0.02788 -0.03923,0.0607 -0.04816,0.09659l-0.13013,0.47714l0.04786,0.01305c-0.00042,0.00252 -0.00084,0.00505 -0.00126,0.00757c-0.56534,1.18205 -0.79113,2.56058 -0.80183,3.85737c-0.0004,0.00605 -0.0004,0.00948 -0.0004,0.00948l0.00033,0.00006c-0.00022,0.0293 -0.00033,0.05856 -0.00033,0.08778l0.02376,-0.00417c-0.10883,0.89587 -0.149,1.77332 -0.04801,2.48383l-0.01716,0.12014c-0.05433,0.38116 -0.08868,0.57718 -0.06383,0.7983l-0.06942,0.00631l0.04369,0.48057c0.00454,0.05711 0.02828,0.10882 0.06476,0.14867c0.00163,0.09323 0.00446,0.1852 0.00757,0.27427c-0.083,0.12261 -0.15716,0.24256 -0.22343,0.36108c-0.13575,0.00268 -0.24497,0.11356 -0.24497,0.24995v0.248c-0.00217,0.013 -0.00438,0.02609 -0.00663,0.03928c-0.27504,0.72615 -0.3008,1.46942 -0.3008,2.52355v0.07827l-0.04052,0.00675l0.04324,0.25946c0.01346,0.09064 0.07558,0.1654 0.15893,0.1969c-0.02183,0.15255 -0.0397,0.30612 -0.05417,0.46051c-0.50376,1.64653 -0.75118,3.73339 -0.58983,5.53114c-0.02149,0.03086 -0.03619,0.06679 -0.04196,0.10564l-0.04324,0.25946c-0.23218,1.39672 -0.61454,2.99331 -0.51613,4.46565c-0.02357,0.20418 -0.04274,0.40825 -0.05395,0.61033c-0.01667,0.02276 -0.02959,0.04844 -0.03783,0.07614l-0.10778,0.33344l0.00137,0.00044l-0.00258,0.00341c-0.205,0.71219 -0.43682,1.35745 -0.36709,2.03141l-0.10415,0.00968l0.03488,0.37515c0.00698,0.0857 0.05717,0.15917 0.12876,0.19859c-0.01866,0.22211 -0.03601,0.41687 -0.05688,0.56297l-0.00642,0.04033l-0.01165,-0.00146l-0.01145,0.09161c-0.11909,0.01911 -0.21007,0.12235 -0.21007,0.24683v0.26351h0.00499l-0.00471,0.01174c0.01007,0.10693 0.01928,0.21451 0.02802,0.32255c-0.37225,0.9496 -0.53615,3.5797 -0.63684,5.25355c-0.18069,0.83288 -0.30146,1.67959 -0.24173,2.28022c-0.10296,0.3032 -0.19398,0.6174 -0.27665,0.93562c-0.26587,0.7014 -0.5097,1.45888 -0.47643,2.15138c-0.01192,0.0567 -0.02384,0.11298 -0.03577,0.16879l0.05154,0.01989l-0.05336,-0.00478l-0.00541,0.06041l-0.02258,0v0.0282l-0.12693,0.12693l-0.0729,0.01035c-0.31385,0.13463 -0.61411,0.27823 -0.90722,0.45383c-0.17336,0.10144 -0.34828,0.17568 -0.52434,0.23458c-3.69119,-0.0244 -6.91676,1.06832 -10.57743,1.07913c-14.26234,0.0421 -28.05124,0.49579 -42.12863,0.68989c-5.0583,-0.43363 -10.08001,-0.77933 -15.05958,0.04866c-1.03986,-0.05612 -1.98816,-0.17014 -2.86514,-0.27707z" fill="#000000" stroke="none" stroke-width="NaN" stroke-linecap="butt"/><path d="" fill="#000000" stroke="none" stroke-width="NaN" stroke-linecap="butt"/><path d="" fill="#000000" stroke="none" stroke-width="NaN" stroke-linecap="butt"/><path d="" fill="#000000" stroke="none" stroke-width="NaN" stroke-linecap="butt"/><path d="" fill="#000000" stroke="none" stroke-width="NaN" stroke-linecap="butt"/><path d="M322.83912,103.03948l-5.67825,46.90229" fill="none" stroke="#ffffff" stroke-width="2" stroke-linecap="round"/></g><path d="" fill="#000000" stroke="none" stroke-width="0" stroke-linecap="butt"/><path d="" fill="#000000" stroke="none" stroke-width="0" stroke-linecap="butt"/><path d="" fill="#000000" stroke="none" stroke-width="0" stroke-linecap="butt"/><path d="" fill="#000000" stroke="none" stroke-width="0" stroke-linecap="butt"/><path d="" fill="#000000" stroke="none" stroke-width="0" stroke-linecap="butt"/><path d="" fill="#000000" stroke="none" stroke-width="0" stroke-linecap="butt"/><path d="" fill="#000000" stroke="none" stroke-width="0" stroke-linecap="butt"/><path d="" fill="#000000" stroke="none" stroke-width="0" stroke-linecap="butt"/><path d="" fill="#000000" stroke="none" stroke-width="0" stroke-linecap="butt"/><path d="" fill="#000000" stroke="none" stroke-width="0" stroke-linecap="butt"/><path d="" fill="#000000" stroke="none" stroke-width="0" stroke-linecap="butt"/><path d="" fill="#000000" stroke="none" stroke-width="0" stroke-linecap="butt"/><path d="" fill="#000000" stroke="none" stroke-width="0" stroke-linecap="butt"/><path d="" fill="#000000" stroke="none" stroke-width="0" stroke-linecap="butt"/><path d="" fill="#000000" stroke="none" stroke-width="0" stroke-linecap="butt"/><path d="" fill="#000000" stroke="none" stroke-width="0" stroke-linecap="butt"/><path d="" fill="#000000" stroke="none" stroke-width="0" stroke-linecap="butt"/><path d="" fill="#000000" stroke="none" stroke-width="0" stroke-linecap="butt"/><path d="" fill="#000000" stroke="none" stroke-width="0" stroke-linecap="butt"/><path d="" fill="#000000" stroke="none" stroke-width="0" stroke-linecap="butt"/><g stroke-linecap="butt"><path d="M304.29133,144.75193c0.00121,-0.01153 0.00241,-0.02306 0.00361,-0.03459c0.00165,0.01177 0.00331,0.02351 0.00499,0.03522c-0.00285,-0.00026 -0.00572,-0.00047 -0.0086,-0.00063z" fill="#000000" stroke="none" stroke-width="0"/><path d="M257.7279,145.46702v-6.82873h15.05423v6.82873z" fill="#9966ff" stroke="#000000" stroke-width="2"/><path d="M274.55579,134.96528v-6.82873h15.05423v6.82873z" fill="#9966ff" stroke="#000000" stroke-width="2"/><path d="M283.40955,123.82799v-6.82873h15.05423v6.82873z" fill="#9966ff" stroke="#000000" stroke-width="2"/><path d="M259.78243,115.24323v-6.82873h15.05423v6.82873z" fill="#9966ff" stroke="#000000" stroke-width="2"/><g stroke="none" stroke-width="1"><path d="M262.28503,138.59138c-0.07381,0.3249 -0.17625,0.68666 -0.49351,0.84567c-0.32422,0.16207 -0.7558,0.15119 -1.11255,0.17965c-0.17319,0.01334 -0.34316,0.00527 -0.51805,0.00909c-0.1252,0.00246 -0.31717,0.03194 -0.42598,-0.04527c0.11994,-0.05122 0.25287,-0.05538 0.37043,-0.11858c0.10448,-0.06175 0.2025,-0.13378 0.29271,-0.21507c0.13709,-0.11586 0.28328,-0.26323 0.34979,-0.43337c0.16682,-0.42844 0.00943,-1.14882 0.06787,-1.59374c0.03355,-0.01232 1.299,-0.72327 1.77917,-0.6853c0.06294,0.14032 -0.26264,1.8523 -0.30986,2.05692z" fill="#828c00"/><path d="M265.21022,135.85858h1.29407c-0.30179,1.5376 -0.56239,3.26334 -0.59102,3.58509c0.09649,0.03338 0.18814,0.00425 0.27699,0.01164c0.00314,0.03185 0.00561,0.05717 0.00875,0.09012c-0.12665,-0.00739 -0.66806,0.01512 -0.7964,-0.01928c0,-0.10915 -0.19239,-3.66757 -0.19239,-3.66757z" fill="#828c00"/><path d="M260.81998,136.79412c0.01087,-0.79513 -0.02829,-1.88891 0.59458,-2.4914c0.11442,-0.11051 0.27181,-0.1754 0.39387,-0.26705c0.18602,-0.14032 0.40568,-0.24276 0.59458,-0.38206c0.06116,-0.04459 0.1822,-0.14737 0.1822,-0.14737l0.23087,-0.12316l-0.00951,-0.21515c0,0 0.1585,-0.43405 0.18432,-0.57683c0.17005,-0.93231 -0.00909,-1.89486 0.16478,-2.82895c0.01886,-0.10244 0.04196,-0.21329 0.06574,-0.31751l2.57455,-0.326l2.64871,0.1754c0.30808,0.23019 -0.03746,0.54532 -0.29169,0.6667c-0.14975,0.07194 -0.28854,0.14041 -0.41621,0.25024c-0.02769,0.02387 -0.25915,0.20173 -0.33577,0.42946c-0.11645,0.34775 -0.08537,0.81305 -0.09343,1.03865c-0.01503,0.42496 0.00875,0.85408 0.02489,1.2787c0.03177,0.8404 0.06608,1.64921 -0.06056,2.48435c-0.05767,0.38206 -0.11994,0.74493 -0.35318,1.06244c-0.24488,0.33305 -0.53555,0.60775 -0.93146,0.75096c-0.73168,0.26425 -4.15861,0.18033 -4.40061,0.15544c-0.25185,-0.02599 -0.51551,0.01614 -0.76455,-0.01546c-0.03635,-0.18594 -0.00493,-0.4112 -0.00212,-0.60138z" fill="#a0aa1e"/><path d="M264.40524,135.76242c0,0 -0.8974,3.18647 -0.8974,3.72584c0.04825,0.00841 0.30111,-0.02633 0.33781,0.02599c-0.03075,0.10703 -0.6537,0.03822 -0.77993,0.0175c-0.03882,-0.11611 -0.19936,-3.67318 -0.19936,-3.67318z" fill="#a0aa1e"/><path d="M268.29552,131.30925c0.05147,0.01435 0.00561,0.54812 0,0.75444c-0.00629,0.23189 -0.01189,0.46497 -0.02548,0.69617c-0.01435,0.24454 -0.11127,0.50285 -0.33687,0.65302c-0.06574,0.04383 -0.40389,0.19995 -0.6921,0.22314c-0.41451,0.03372 -0.71112,-0.09403 -0.82299,-0.10108l-0.02761,-0.04808c0.0079,-0.11416 0.00917,-0.22875 0.00382,-0.34316c0.08953,-0.01614 0.4473,0.14703 0.78375,0.11934c0.33093,-0.02701 0.64113,-0.24463 0.69082,-0.32982c0.08537,-0.14635 0.11017,-0.31199 0.11747,-0.47898c0.00807,-0.1867 0,-0.37442 0.00314,-0.56146c0.00212,-0.13828 -0.04791,-0.61862 0.00527,-0.61862c0.05317,0 0.0175,0.22773 0.07449,0.23155c0.057,0.00391 0.04306,-0.23894 0.07483,-0.23894c0.03185,0 0.00705,0.2499 0.05708,0.2499c0.04961,0 0.04298,-0.22178 0.09437,-0.20743z" fill="#a0aa1e"/><path d="M264.51677,131.27417c0.05147,0.01435 0.00561,0.54812 0,0.75444c-0.00629,0.23189 -0.01189,0.46488 -0.02548,0.69617c-0.01435,0.24454 -0.14414,0.54422 -0.36975,0.69473c-0.06464,0.04391 -0.37102,0.15824 -0.65922,0.18143c-0.41341,0.03372 -0.87438,-0.09581 -0.87438,-0.09581l0.22136,-0.33823c0.19146,0.05759 0.392,0.07832 0.5911,0.06107c0.33084,-0.02701 0.64113,-0.24463 0.69074,-0.32982c0.08537,-0.14635 0.11017,-0.31199 0.11756,-0.47898c0.00798,-0.1867 0,-0.37442 0.00314,-0.56146c0.00212,-0.13828 -0.04791,-0.61862 0.00527,-0.61862c0.05309,0 0.01741,0.22773 0.07449,0.23155c0.057,0.00391 0.04298,-0.23894 0.07483,-0.23894c0.03185,0 0.00697,0.24981 0.057,0.24981c0.04969,0 0.04196,-0.2217 0.09335,-0.20734z" fill="#828c00"/><g><path d="M267.48544,129.23338c-0.00637,0.20946 -0.02659,0.40389 -0.14627,0.58354l-0.09437,0.04451c-0.25712,-0.05334 -0.2578,-0.44458 -0.21719,-0.64207c0.15773,0.01121 0.30324,-0.00773 0.45783,0.01402z" fill="#ffffff"/><path d="M267.63129,129.14496h0.29729c0.16011,0.8049 -0.52323,0.75759 -0.29729,0z" fill="#ffffff"/><path d="M266.58125,129.02986h0.29729c0.1602,0.8049 -0.52323,0.75793 -0.29729,0z" fill="#dcd2b4"/><path d="M266.14652,128.98145h0.29763c0.15986,0.8049 -0.52357,0.75759 -0.29763,0z" fill="#ffffff"/><path d="M265.71953,128.90882h0.29763c0.15841,0.8049 -0.52468,0.7575 -0.29763,0z" fill="#ffffff"/><path d="M268.06567,129.07828h0.29763c0.15986,0.8049 -0.52357,0.75793 -0.29763,0z" fill="#faf0e6"/><path d="M265.43234,127.3996c0.22348,-0.01087 0.44772,-0.00595 0.67154,-0.01334c0.50225,-0.01682 1.00306,0.00416 1.50566,-0.01368c0.24803,0.04697 0.50438,0.02421 0.75546,0.07679c0.21583,0.04476 0.42182,0.12792 0.60826,0.24565c0.35539,0.2228 0.56732,0.68564 0.58932,1.09658c0.01019,0.19188 -0.03737,0.414 -0.21473,0.51933c-0.19655,0.11645 -0.48968,0.07016 -0.7062,0.07611c-0.55959,0.01198 -1.11918,0.01928 -1.67877,0.01164l-3.73748,0.04663c0.07194,-0.33322 0.17829,-0.65804 0.31717,-0.96917c0.16886,-0.37739 0.47083,-0.67893 0.84779,-0.84635c0.29772,-0.13794 0.95312,-0.2256 1.04197,-0.23019z" fill="#828c00"/><path d="M268.97709,128.89685c0.13191,0 0.30044,0.09794 0.21405,0.25898c-0.07585,0.14211 -0.25219,0.06209 -0.30213,-0.05615c0.01257,-0.07381 0.04281,-0.14338 0.08808,-0.20284z" fill="#645a1e"/><path d="M268.48783,129.17656c-0.15111,0.0993 -0.27249,-0.10703 -0.1997,-0.23656l0.09267,-0.07016c0.15179,-0.00246 0.25041,0.21371 0.10703,0.30672z" fill="#645a1e"/><path d="M269.7159,128.47061c-0.00289,-0.03635 0.01461,-0.07127 0.04536,-0.09063c0.06957,0.01546 0.03848,0.13055 0.01368,0.17302c-0.03347,-0.01427 -0.05623,-0.04604 -0.05903,-0.08239z" fill="#000000"/><path d="M266.20004,128.45609c0.11229,0.0474 0.01121,0.26918 -0.09369,0.12886c0.00416,-0.07161 0.03321,-0.11059 0.09369,-0.12886z" fill="#000000"/></g></g></g></g></g></svg>