<svg version="1.1" xmlns="http://www.w3.org/2000/svg" xmlns:xlink="http://www.w3.org/1999/xlink" width="510" height="350" viewBox="0,0,510,350"><defs><radialGradient cx="549.64781" cy="46.94377" r="22.7" gradientUnits="userSpaceOnUse" id="color-1"><stop offset="0" stop-color="#000000" stop-opacity="0.56471"/><stop offset="1" stop-color="#000000" stop-opacity="0"/></radialGradient></defs><g transform="translate(-65,-21)"><g stroke-miterlimit="10"><path d="M76.53846,371c-6.37252,0 -11.53846,-4.47715 -11.53846,-10v-330c0,-5.52285 5.16595,-10 11.53846,-10h486.92308c6.37252,0 11.53846,4.47715 11.53846,10v330c0,5.52285 -5.16595,10 -11.53846,10z" fill="#4687ff" stroke="none" stroke-width="0"/><path d="M526.94781,46.94377c0,-12.53686 10.16314,-22.7 22.7,-22.7c12.53686,0 22.7,10.16314 22.7,22.7c0,12.53686 -10.16314,22.7 -22.7,22.7c-12.53686,0 -22.7,-10.16314 -22.7,-22.7z" fill="url(#color-1)" stroke="#cacaca" stroke-width="0"/><text transform="translate(543.7,53.8) scale(0.5,0.5)" font-size="40" xml:space="preserve" fill="#ffffff" stroke="#cacaca" stroke-width="1" font-family="Sans Serif" font-weight="normal" text-anchor="start"><tspan x="0" dy="0">X</tspan></text></g></g></svg>