<svg version="1.1" xmlns="http://www.w3.org/2000/svg" xmlns:xlink="http://www.w3.org/1999/xlink" width="100.87222" height="99.11105" viewBox="0,0,100.87222,99.11105"><g transform="translate(-269.44097,-131.0281)"><g fill="#ea9b1f" fill-rule="evenodd" stroke="none" stroke-miterlimit="10"><path d="M366.37464,190.23598c0.8,3.5 1.1,7.3 -1.1,10.4c-1.3,1.8 -3.1,1.7 -4.4,3.1c-3.3,3.6 -0.9,8.8 -3.9,13.4c-1.7,2.6 -7.1,3 -10.3,3.2c-0.3,0 -1.9,0.3 -2.1,1.6c-1.4,5 -7.2,5.8 -12.1,6.2c-3.7,0.3 -6.6,2.5 -10.4,1.9c-1.7,-0.3 -3.4,-1.2 -5.1,-1.4c-2.6,-0.3 -3.5,0.9 -5.7,1.2c-3.3,0.3 -5.2,-2.2 -8,-3.3c-2.9,-1.1 -6.1,-0.7 -8.9,-2.2c-3,-1.6 -4.6,-4.7 -7.4,-6.5c-2.2,-1.4 -3.5,-3.1 -4.6,-5.5c-1,-2 -1.2,-3.5 -3.2,-4.8c-1,-0.7 -1.8,-0.9 -2.7,-1.8c-2.2,-2.2 -4.9,-3.2 -5.3,-9c-0.1,-1.7 -0.7,-2.9 -0.7,-4.6c0,-1.8 -0.2,-3 -0.7,-4.9c-1,-3.3 0.5,-6.5 1.2,-9.9c0.8,-4.3 -0.2,-7.7 0,-12.1c0.1,-3.1 1.1,-5.4 3.3,-7.6c1.4,-1.3 3.2,-2.1 4.3,-3.8c1.2,-1.9 1.5,-4.2 2.4,-6.2c1.1,-2.5 2.6,-4.5 5.2,-5.7c0.2,-0.1 8.3,-2.9 14.5,-9c4,-4 9,-0.5 14.2,-0.3c5.8,0.2 10.6,-2.4 16.3,-0.2c2.6,1 5,2.7 7.6,3.5c2.5,0.8 4,-0.1 6.6,0.5c4.9,1.2 7.1,10 10.7,14.3c3.6,4.2 8.4,4.7 9.7,10.5c0.7,2.8 -0.3,5.5 0.9,8.1c1,2.1 2.7,3.7 3.4,5.9c1.5,4.9 -4.6,11.6 -3.7,15z"/></g></g></svg>