<svg version="1.1" xmlns="http://www.w3.org/2000/svg" xmlns:xlink="http://www.w3.org/1999/xlink" width="149.42443" height="77.11349" viewBox="0,0,149.42443,77.11349"><g transform="translate(-245.04246,-102.7044)"><g stroke-miterlimit="10"><path d="M245.04246,112.70441c0,-5.52285 4.42925,-10 9.89301,-10h129.63841c5.46376,0 9.89301,4.47715 9.89301,10l0,42.12792c-3.30039,0.29937 -7.57452,1.50823 -10.38618,2.19365c-3.34637,-0.06444 -6.43801,0.1448 -9.59173,0.43948c-2.10977,-0.17308 -4.19051,-0.4086 -6.02997,-0.51182c-10.60624,-0.59514 -20.93654,-1.64851 -31.58009,-1.52502c-8.35607,0.09695 -16.6855,1.88695 -25.08037,2.01035c-13.37677,0.19663 -26.30854,-1.60907 -39.75335,-1.67529c-5.13819,-0.02531 -10.27668,0.04245 -15.41476,0c-3.49368,-0.02887 -7.81341,-1.136 -11.58798,-0.83814z" fill="#000000" stroke="none" stroke-width="NaN"/><path d="M254.93547,179.8179c-0.16797,0 -0.33496,-0.00423 -0.50087,-0.01259c0.09325,-0.00058 0.17814,-0.00036 0.25379,0.00093c0.21972,0.00373 0.43944,0.00762 0.65917,0.01167z" fill="#000000" stroke="none" stroke-width="NaN"/><path d="" fill="#000000" stroke="none" stroke-width="0"/><path d="" fill="#000000" stroke="none" stroke-width="0"/><path d="" fill="#000000" stroke="none" stroke-width="0"/><path d="" fill="#000000" stroke="none" stroke-width="0"/><path d="" fill="#000000" stroke="none" stroke-width="0"/><path d="" fill="#000000" stroke="none" stroke-width="0"/><path d="" fill="#000000" stroke="none" stroke-width="0"/><path d="" fill="#000000" stroke="none" stroke-width="0"/><path d="" fill="#000000" stroke="none" stroke-width="0"/><path d="" fill="#000000" stroke="none" stroke-width="0"/><path d="" fill="#000000" stroke="none" stroke-width="0"/><path d="" fill="#000000" stroke="none" stroke-width="0"/><path d="" fill="#000000" stroke="none" stroke-width="0"/><path d="" fill="#000000" stroke="none" stroke-width="0"/><path d="" fill="#000000" stroke="none" stroke-width="0"/><path d="" fill="#000000" stroke="none" stroke-width="0"/><path d="" fill="#000000" stroke="none" stroke-width="0"/><path d="" fill="#000000" stroke="none" stroke-width="0"/><path d="" fill="#000000" stroke="none" stroke-width="0"/><path d="" fill="#000000" stroke="none" stroke-width="0"/><g><path d="M343.61535,144.75194c0.00121,-0.01153 0.00241,-0.02306 0.00361,-0.03459c0.00165,0.01177 0.00331,0.02351 0.00499,0.03522c-0.00285,-0.00026 -0.00572,-0.00047 -0.0086,-0.00063z" fill="#000000" stroke="none" stroke-width="0"/><path d="M297.05192,145.46702v-6.82873h15.05423v6.82873z" fill="#9966ff" stroke="#000000" stroke-width="2"/><path d="M313.87981,134.96529v-6.82873h15.05423v6.82873z" fill="#9966ff" stroke="#000000" stroke-width="2"/><path d="M322.73357,123.828v-6.82873h15.05423v6.82873z" fill="#9966ff" stroke="#000000" stroke-width="2"/><path d="M299.10645,115.24324v-6.82873h15.05423v6.82873z" fill="#9966ff" stroke="#000000" stroke-width="2"/><g stroke="none" stroke-width="1"><path d="M301.60905,138.59139c-0.07381,0.3249 -0.17625,0.68666 -0.49351,0.84567c-0.32422,0.16207 -0.7558,0.15119 -1.11255,0.17965c-0.17319,0.01334 -0.34316,0.00527 -0.51805,0.00909c-0.1252,0.00246 -0.31717,0.03194 -0.42598,-0.04527c0.11994,-0.05122 0.25287,-0.05538 0.37043,-0.11858c0.10448,-0.06175 0.2025,-0.13378 0.29271,-0.21507c0.13709,-0.11586 0.28328,-0.26323 0.34979,-0.43337c0.16682,-0.42844 0.00943,-1.14882 0.06787,-1.59374c0.03355,-0.01232 1.299,-0.72327 1.77917,-0.6853c0.06294,0.14032 -0.26264,1.8523 -0.30986,2.05692z" fill="#828c00"/><path d="M304.53424,135.85859h1.29407c-0.30179,1.5376 -0.56239,3.26334 -0.59102,3.58509c0.09649,0.03338 0.18814,0.00425 0.27699,0.01164c0.00314,0.03185 0.00561,0.05717 0.00875,0.09012c-0.12665,-0.00739 -0.66806,0.01512 -0.7964,-0.01928c0,-0.10915 -0.19239,-3.66757 -0.19239,-3.66757z" fill="#828c00"/><path d="M300.144,136.79413c0.01087,-0.79513 -0.02829,-1.88891 0.59458,-2.4914c0.11442,-0.11051 0.27181,-0.1754 0.39387,-0.26705c0.18602,-0.14032 0.40568,-0.24276 0.59458,-0.38206c0.06116,-0.04459 0.1822,-0.14737 0.1822,-0.14737l0.23087,-0.12316l-0.00951,-0.21515c0,0 0.1585,-0.43405 0.18432,-0.57683c0.17005,-0.93231 -0.00909,-1.89486 0.16478,-2.82895c0.01886,-0.10244 0.04196,-0.21329 0.06574,-0.31751l2.57455,-0.326l2.64871,0.1754c0.30808,0.23019 -0.03746,0.54532 -0.29169,0.6667c-0.14975,0.07194 -0.28854,0.14041 -0.41621,0.25024c-0.02769,0.02387 -0.25915,0.20173 -0.33577,0.42946c-0.11645,0.34775 -0.08537,0.81305 -0.09343,1.03865c-0.01503,0.42496 0.00875,0.85408 0.02489,1.2787c0.03177,0.8404 0.06608,1.64921 -0.06056,2.48435c-0.05767,0.38206 -0.11994,0.74493 -0.35318,1.06244c-0.24488,0.33305 -0.53555,0.60775 -0.93146,0.75096c-0.73168,0.26425 -4.15861,0.18033 -4.40061,0.15544c-0.25185,-0.02599 -0.51551,0.01614 -0.76455,-0.01546c-0.03635,-0.18594 -0.00493,-0.4112 -0.00212,-0.60138z" fill="#a0aa1e"/><path d="M303.72926,135.76243c0,0 -0.8974,3.18647 -0.8974,3.72584c0.04825,0.00841 0.30111,-0.02633 0.33781,0.02599c-0.03075,0.10703 -0.6537,0.03822 -0.77993,0.0175c-0.03882,-0.11611 -0.19936,-3.67318 -0.19936,-3.67318z" fill="#a0aa1e"/><path d="M307.61954,131.30926c0.05147,0.01435 0.00561,0.54812 0,0.75444c-0.00629,0.23189 -0.01189,0.46497 -0.02548,0.69617c-0.01435,0.24454 -0.11127,0.50285 -0.33687,0.65302c-0.06574,0.04383 -0.40389,0.19995 -0.6921,0.22314c-0.41451,0.03372 -0.71112,-0.09403 -0.82299,-0.10108l-0.02761,-0.04808c0.0079,-0.11416 0.00917,-0.22875 0.00382,-0.34316c0.08953,-0.01614 0.4473,0.14703 0.78375,0.11934c0.33093,-0.02701 0.64113,-0.24463 0.69082,-0.32982c0.08537,-0.14635 0.11017,-0.31199 0.11747,-0.47898c0.00807,-0.1867 0,-0.37442 0.00314,-0.56146c0.00212,-0.13828 -0.04791,-0.61862 0.00527,-0.61862c0.05317,0 0.0175,0.22773 0.07449,0.23155c0.057,0.00391 0.04306,-0.23894 0.07483,-0.23894c0.03185,0 0.00705,0.2499 0.05708,0.2499c0.04961,0 0.04298,-0.22178 0.09437,-0.20743z" fill="#a0aa1e"/><path d="M303.84079,131.27418c0.05147,0.01435 0.00561,0.54812 0,0.75444c-0.00629,0.23189 -0.01189,0.46488 -0.02548,0.69617c-0.01435,0.24454 -0.14414,0.54422 -0.36975,0.69473c-0.06464,0.04391 -0.37102,0.15824 -0.65922,0.18143c-0.41341,0.03372 -0.87438,-0.09581 -0.87438,-0.09581l0.22136,-0.33823c0.19146,0.05759 0.392,0.07832 0.5911,0.06107c0.33084,-0.02701 0.64113,-0.24463 0.69074,-0.32982c0.08537,-0.14635 0.11017,-0.31199 0.11756,-0.47898c0.00798,-0.1867 0,-0.37442 0.00314,-0.56146c0.00212,-0.13828 -0.04791,-0.61862 0.00527,-0.61862c0.05309,0 0.01741,0.22773 0.07449,0.23155c0.057,0.00391 0.04298,-0.23894 0.07483,-0.23894c0.03185,0 0.00697,0.24981 0.057,0.24981c0.04969,0 0.04196,-0.2217 0.09335,-0.20734z" fill="#828c00"/><g><path d="M306.80946,129.23339c-0.00637,0.20946 -0.02659,0.40389 -0.14627,0.58354l-0.09437,0.04451c-0.25712,-0.05334 -0.2578,-0.44458 -0.21719,-0.64207c0.15773,0.01121 0.30324,-0.00773 0.45783,0.01402z" fill="#ffffff"/><path d="M306.95531,129.14497h0.29729c0.16011,0.8049 -0.52323,0.75759 -0.29729,0z" fill="#ffffff"/><path d="M305.90527,129.02987h0.29729c0.1602,0.8049 -0.52323,0.75793 -0.29729,0z" fill="#dcd2b4"/><path d="M305.47054,128.98145h0.29763c0.15986,0.8049 -0.52357,0.75759 -0.29763,0z" fill="#ffffff"/><path d="M305.04355,128.90882h0.29763c0.15841,0.8049 -0.52468,0.7575 -0.29763,0z" fill="#ffffff"/><path d="M307.38969,129.07829h0.29763c0.15986,0.8049 -0.52357,0.75793 -0.29763,0z" fill="#faf0e6"/><path d="M304.75636,127.39961c0.22348,-0.01087 0.44772,-0.00595 0.67154,-0.01334c0.50225,-0.01682 1.00306,0.00416 1.50566,-0.01368c0.24803,0.04697 0.50438,0.02421 0.75546,0.07679c0.21583,0.04476 0.42182,0.12792 0.60826,0.24565c0.35539,0.2228 0.56732,0.68564 0.58932,1.09658c0.01019,0.19188 -0.03737,0.414 -0.21473,0.51933c-0.19655,0.11645 -0.48968,0.07016 -0.7062,0.07611c-0.55959,0.01198 -1.11918,0.01928 -1.67877,0.01164l-3.73748,0.04663c0.07194,-0.33322 0.17829,-0.65804 0.31717,-0.96917c0.16886,-0.37739 0.47083,-0.67893 0.84779,-0.84635c0.29772,-0.13794 0.95312,-0.2256 1.04197,-0.23019z" fill="#828c00"/><path d="M308.30111,128.89686c0.13191,0 0.30044,0.09794 0.21405,0.25898c-0.07585,0.14211 -0.25219,0.06209 -0.30213,-0.05615c0.01257,-0.07381 0.04281,-0.14338 0.08808,-0.20284z" fill="#645a1e"/><path d="M307.81185,129.17656c-0.15111,0.0993 -0.27249,-0.10703 -0.1997,-0.23656l0.09267,-0.07016c0.15179,-0.00246 0.25041,0.21371 0.10703,0.30672z" fill="#645a1e"/><path d="M309.03992,128.47062c-0.00289,-0.03635 0.01461,-0.07127 0.04536,-0.09063c0.06957,0.01546 0.03848,0.13055 0.01368,0.17302c-0.03347,-0.01427 -0.05623,-0.04604 -0.05903,-0.08239z" fill="#000000"/><path d="M305.52406,128.4561c0.11229,0.0474 0.01121,0.26918 -0.09369,0.12886c0.00416,-0.07161 0.03321,-0.11059 0.09369,-0.12886z" fill="#000000"/></g></g></g></g></g></svg>