<svg version="1.1" xmlns="http://www.w3.org/2000/svg" xmlns:xlink="http://www.w3.org/1999/xlink" width="78.30602" height="52.21287" viewBox="0,0,78.30602,52.21287"><g transform="translate(-316.16087,-100.03519)"><g stroke-miterlimit="10"><path d="M384.57388,102.70439c5.46376,0 9.89301,4.47715 9.89301,10v39.20711c-3.32255,-0.33151 -7.14694,0.33069 -10.23561,0.33407c-18.94972,0.02071 -37.17644,-0.31729 -55.89633,0c-1.67774,0.02844 -4.57316,-0.19768 -7.46096,-0.10664c-0.03099,-0.02765 -0.05864,-0.04147 -0.05864,-0.04147l-0.13609,-0.06804l-0.13702,-0.47818c0,0 -0.22361,-0.1118 -0.33541,0.1118c-0.01159,0.02319 -0.01958,0.04518 -0.02459,0.06596c-0.15272,-0.10298 -0.30031,-0.21801 -0.43988,-0.35853c0,0 -0.12981,-0.12981 -0.27819,-0.05572c-0.07947,-0.15579 -0.16127,-0.31045 -0.24718,-0.46313c-0.01126,-0.04708 -0.03583,-0.08898 -0.06952,-0.1215c-0.00562,-0.00966 -0.01127,-0.01932 -0.01693,-0.02896c-0.02611,-0.09868 -0.11106,-0.17343 -0.21502,-0.18446l-0.49322,-0.05936l-0.01145,0.09516c-0.56775,-0.07289 -1.05043,0.04394 -1.69111,0.06016l-0.00214,-0.01283c-0.01727,-0.11627 -0.11459,-0.20642 -0.23412,-0.21261l-0.03706,-0.40769c-0.00936,-0.11772 -0.10027,-0.21247 -0.21622,-0.22775c0.14889,-0.62668 0.27758,-1.26481 0.34016,-1.86927c0.11248,-0.00398 0.20605,-0.08226 0.23311,-0.18726l0.09163,-0.32482l-0.00405,-0.00114l0.00701,-0.01043c0.14838,-0.818 0.21095,-1.58371 0.04428,-2.35072c0,-0.00019 0.00001,-0.00038 0.00001,-0.00057l0.07377,-0.01054l-0.03965,-0.27755l0.06249,0v-0.31863c0,-0.10771 -0.06812,-0.19952 -0.16363,-0.23468c0.22345,-0.90348 0.40311,-1.82067 0.48179,-2.69304c0.04231,-0.20835 0.08306,-0.41768 0.12163,-0.62717c0.00644,-0.01746 0.011,-0.03583 0.01341,-0.05487l0.01266,-0.08865c0.06082,-0.33941 0.11554,-0.67875 0.16157,-1.01451c0.21357,-1.12525 0.52546,-2.30533 0.49057,-3.42342l0.07192,0.00553l0.03814,-0.49579c0.00063,-0.00722 0.00095,-0.01453 0.00095,-0.02191c0,-0.13204 -0.10236,-0.24016 -0.23205,-0.24937c0.45308,-1.67684 0.86155,-3.56575 0.64835,-4.74011c0.23567,-1.0296 0.58642,-2.15611 0.59139,-3.22084c0.02084,-0.09814 0.04037,-0.19912 0.05828,-0.30234l0.02647,0v-0.16187c0.09971,-0.64941 0.13279,-1.37138 0.03281,-2.02125c0.14999,-0.95739 0.52057,-1.99544 0.37082,-2.92707c0.00682,-0.02011 0.01116,-0.04137 0.01264,-0.06341l0.00084,-0.01088l0.07613,-0.01903l-0.0571,-0.2284l0.01779,-0.23124c0.14346,-0.9517 0.33868,-1.86337 0.2744,-2.79514l0.06694,0.00319l0.0237,-0.49761c0.00025,-0.00454 0.00037,-0.00911 0.00037,-0.01371c0,-0.09246 -0.05019,-0.1732 -0.12482,-0.21645c0.00732,-0.04894 0.01464,-0.09788 0.02199,-0.14682c0.07819,-0.03484 0.1352,-0.10865 0.14636,-0.19675l0.04457,-0.31201c0.19253,-1.09494 0.47609,-2.26052 0.46271,-3.38546l0.05875,0.00839l0.0701,-0.49072c0.00205,-0.0129 0.00312,-0.02613 0.00312,-0.03961c0,-0.06555 -0.02523,-0.1252 -0.0665,-0.16979c0.09321,-0.54106 0.20091,-1.0847 0.26699,-1.62866c0.01374,-0.02697 0.02273,-0.05676 0.02586,-0.08828l0.04631,-0.40954l-0.00389,-0.00044l0.00499,-0.01208c0.00225,-0.18079 0.00478,-0.3626 0.00781,-0.54523l0.0435,0.00335l0.03814,-0.49579c0.00063,-0.00722 0.00095,-0.01453 0.00095,-0.02191c0,-0.06664 -0.02608,-0.1272 -0.06858,-0.17201c0.00291,-0.11724 0.00611,-0.2347 0.00968,-0.35235l0.08421,-0.19649l-0.00754,-0.00323l0.0157,-0.01856c0.17385,-0.77418 0.19537,-1.54478 0.19586,-2.31621c0.07069,-0.67178 0.11769,-1.36792 0.17045,-1.94623c0.19985,-0.72828 0.26387,-1.24527 0.23949,-1.58588c0.03891,-0.03278 0.06768,-0.07721 0.08093,-0.12792l0.08952,-0.31332l-0.00151,-0.00043l0.00262,-0.00358c-0.00018,-0.00148 -0.00036,-0.00295 -0.00053,-0.00443l0.00158,0.00039l0.08968,-0.35871c0.00198,-0.00724 0.00364,-0.01462 0.00497,-0.02211z" fill="#000000" stroke="none" stroke-width="NaN" stroke-linecap="butt"/><path d="" fill="#000000" stroke="none" stroke-width="NaN" stroke-linecap="butt"/><path d="" fill="#000000" stroke="none" stroke-width="NaN" stroke-linecap="butt"/><path d="" fill="#000000" stroke="none" stroke-width="NaN" stroke-linecap="butt"/><path d="" fill="#000000" stroke="none" stroke-width="NaN" stroke-linecap="butt"/><path d="M319.92031,113.3795c-0.0124,0.03612 -0.02476,0.07238 -0.03704,0.10878c0.00375,-0.03703 0.00751,-0.07405 0.01129,-0.11106c0.00845,0.00119 0.01704,0.00196 0.02575,0.00228z" fill="#000000" stroke="none" stroke-width="NaN" stroke-linecap="butt"/><text transform="translate(351.83401,136.19239) scale(0.8312,0.8312)" font-size="40" xml:space="preserve" fill="#ff00e9" stroke="none" stroke-width="1" stroke-linecap="butt" font-family="Sans Serif" font-weight="normal" text-anchor="start"><tspan x="0" dy="0">?</tspan></text><path d="M322.83912,103.03947l-5.67825,46.90229" fill="none" stroke="#ffffff" stroke-width="2" stroke-linecap="round"/></g></g></svg>