<svg version="1.1" xmlns="http://www.w3.org/2000/svg" xmlns:xlink="http://www.w3.org/1999/xlink" width="268.52834" height="133.87465" viewBox="0,0,268.52834,133.87465"><g transform="translate(123.85476,-286.99164)"><g stroke="none" stroke-miterlimit="10"><path d="M-123.85476,420.7609v-133.76926h268.52834v133.76926z" fill="#949494" stroke-width="0"/><g stroke-width="1"><path d="M144.19891,376.39638v11.14282h-11.14282v-11.14282z" fill="#7b7b7b"/><path d="M144.19891,354.11074v11.14282h-11.14282v-11.14282z" fill="#7b7b7b"/><path d="M144.19891,342.96778v11.14282h-11.14282v-11.14282z" fill="#7b7b7b"/><path d="M133.05609,387.5392v11.14282h-11.14282v-11.14282z" fill="#7b7b7b"/><path d="M133.05609,376.39638v11.14282h-11.14282v-11.14282z" fill="#7b7b7b"/><path d="M133.05609,365.25356v11.14282h-11.14282v-11.14282z" fill="#7b7b7b"/><path d="M121.91327,387.5392v11.14282h-11.14282v-11.14282z" fill="#7b7b7b"/><path d="M121.91327,365.25356v11.14282h-11.14282v-11.14282z" fill="#7b7b7b"/><path d="M121.91327,342.96778v11.14282h-11.14282v-11.14282z" fill="#7b7b7b"/><path d="M110.77042,387.5392v11.14282h-11.14282v-11.14282z" fill="#7b7b7b"/><path d="M110.77042,376.39638v11.14282h-11.14282v-11.14282z" fill="#7b7b7b"/><path d="M110.77042,354.11074v11.14282h-11.14282v-11.14282z" fill="#7b7b7b"/><path d="M110.77042,342.96778v11.14282h-11.14282v-11.14282z" fill="#7b7b7b"/><path d="M99.6276,376.39638v11.14282h-11.14282v-11.14282z" fill="#7b7b7b"/><path d="M99.6276,365.25356v11.14282h-11.14282v-11.14282z" fill="#7b7b7b"/><path d="M99.6276,354.11074v11.14282h-11.14282v-11.14282z" fill="#7b7b7b"/><path d="M88.48478,387.5392v11.14282h-11.14282v-11.14282z" fill="#7b7b7b"/><path d="M88.48478,376.39638v11.14282h-11.14282v-11.14282z" fill="#7b7b7b"/><path d="M88.48478,354.11074v11.14282h-11.14282v-11.14282z" fill="#7b7b7b"/><path d="M88.48478,342.96778v11.14282h-11.14282v-11.14282z" fill="#7b7b7b"/><path d="M77.34197,387.5392v11.14282h-11.14282v-11.14282z" fill="#7b7b7b"/><path d="M77.34197,376.39638v11.14282h-11.14282v-11.14282z" fill="#7b7b7b"/><path d="M77.34197,365.25356v11.14282h-11.14282v-11.14282z" fill="#7b7b7b"/><path d="M77.34197,354.11074v11.14282h-11.14282v-11.14282z" fill="#7b7b7b"/><path d="M77.34197,342.96778v11.14282h-11.14282v-11.14282z" fill="#502d16"/><path d="M66.19915,376.39638v11.14282h-11.14282v-11.14282z" fill="#7b7b7b"/><path d="M66.19915,365.25356v11.14282h-11.14282v-11.14282z" fill="#7b7b7b"/><path d="M66.19915,342.96778v11.14282h-11.14282v-11.14282z" fill="#7b7b7b"/><path d="M55.05633,387.5392v11.14282h-11.14282v-11.14282z" fill="#7b7b7b"/><path d="M55.05633,376.39638v11.14282h-11.14282v-11.14282z" fill="#7b7b7b"/><path d="M55.05633,365.25356v11.14282h-11.14282v-11.14282z" fill="#7b7b7b"/><path d="M55.05633,354.11074v11.14282h-11.14282v-11.14282z" fill="#7b7b7b"/><path d="M55.05633,342.96778v11.14282h-11.14282v-11.14282z" fill="#7b7b7b"/><path d="M43.91354,387.5392v11.14282h-11.14282v-11.14282z" fill="#7b7b7b"/><path d="M43.91354,365.25356v11.14282h-11.14282v-11.14282z" fill="#7b7b7b"/><path d="M43.91354,354.11074v11.14282h-11.14282v-11.14282z" fill="#7b7b7b"/><path d="M32.77069,387.5392v11.14282h-11.14282v-11.14282z" fill="#7b7b7b"/><path d="M32.77069,376.39638v11.14282h-11.14282v-11.14282z" fill="#7b7b7b"/><path d="M32.77069,354.11074v11.14282h-11.14282v-11.14282z" fill="#7b7b7b"/><path d="M32.77069,342.96778v11.14282h-11.14282v-11.14282z" fill="#7b7b7b"/><path d="M21.62784,376.39638v11.14282h-11.14282v-11.14282z" fill="#7b7b7b"/><path d="M21.62784,365.25356v11.14282h-11.14282v-11.14282z" fill="#7b7b7b"/><path d="M21.62784,354.11074v11.14282h-11.14282v-11.14282z" fill="#7b7b7b"/><path d="M77.34197,398.68202v11.14282h-11.14282v-11.14282z" fill="#502d16"/><g fill="#7b7b7b"><path d="M144.19888,320.78757v11.14282h-11.14282v-11.14282z"/><path d="M144.19888,298.50193v11.14282h-11.14282v-11.14282z"/><path d="M144.19888,287.35896v11.14282h-11.14282v-11.14282z"/><path d="M133.05606,331.93039v11.14285h-11.14282v-11.14285z"/><path d="M133.05606,320.78757v11.14282h-11.14282v-11.14282z"/><path d="M133.05606,309.64475v11.14282h-11.14282v-11.14282z"/><path d="M121.91327,331.93039v11.14285h-11.14282v-11.14285z"/><path d="M121.91327,309.64475v11.14282h-11.14282v-11.14282z"/><path d="M121.91327,287.35896v11.14282h-11.14282v-11.14282z"/><path d="M110.77042,331.93039v11.14285h-11.14285v-11.14285z"/><path d="M110.77042,320.78757v11.14282h-11.14285v-11.14282z"/><path d="M110.77042,298.50193v11.14282h-11.14285v-11.14282z"/><path d="M110.77042,287.35896v11.14282h-11.14285v-11.14282z"/><path d="M99.6276,320.78757v11.14282h-11.14282v-11.14282z"/><path d="M99.6276,309.64475v11.14282h-11.14282v-11.14282z"/><path d="M99.6276,298.50193v11.14282h-11.14282v-11.14282z"/><path d="M88.48478,331.93039v11.14285h-11.14282v-11.14285z"/><path d="M88.48478,320.78757v11.14282h-11.14282v-11.14282z"/><path d="M88.48478,298.50193v11.14282h-11.14282v-11.14282z"/><path d="M88.48478,287.35896v11.14282h-11.14282v-11.14282z"/><path d="M77.34197,331.93039v11.14285h-11.14282v-11.14285z"/><path d="M77.34197,320.78757v11.14282h-11.14282v-11.14282z"/><path d="M77.34197,309.64475v11.14282h-11.14282v-11.14282z"/><path d="M77.34197,298.50193v11.14282h-11.14282v-11.14282z"/><path d="M77.34197,287.35896v11.14282h-11.14282v-11.14282z"/><path d="M66.19915,320.78757v11.14282h-11.14282v-11.14282z"/><path d="M66.19915,309.64475v11.14282h-11.14282v-11.14282z"/><path d="M66.19915,287.35896v11.14282h-11.14282v-11.14282z"/><path d="M55.05633,331.93039v11.14285h-11.14285v-11.14285z"/><path d="M55.05633,320.78757v11.14282h-11.14285v-11.14282z"/><path d="M55.05633,309.64475v11.14282h-11.14285v-11.14282z"/><path d="M55.05633,298.50193v11.14282h-11.14285v-11.14282z"/><path d="M55.05633,287.35896v11.14282h-11.14285v-11.14282z"/><path d="M43.91354,331.93039v11.14285h-11.14282v-11.14285z"/><path d="M43.91354,309.64475v11.14282h-11.14282v-11.14282z"/><path d="M43.91354,298.50193v11.14282h-11.14282v-11.14282z"/><path d="M32.77069,331.93039v11.14285h-11.14282v-11.14285z"/><path d="M32.77069,320.78757v11.14282h-11.14282v-11.14282z"/><path d="M32.77069,298.50193v11.14282h-11.14282v-11.14282z"/><path d="M32.77069,287.35896v11.14282h-11.14282v-11.14282z"/><path d="M21.62784,320.78757v11.14282h-11.14282v-11.14282z"/><path d="M21.62784,309.64475v11.14282h-11.14282v-11.14282z"/><path d="M21.62784,298.50193v11.14282h-11.14282v-11.14282z"/><path d="M77.34197,343.07321v11.14282h-11.14282v-11.14282z"/></g><path d="M144.19888,409.72347v11.14282h-11.14282v-11.14282z" fill="#7b7b7b"/><path d="M144.19888,398.5805v11.14282h-11.14282v-11.14282z" fill="#7b7b7b"/><path d="M121.91327,398.5805v11.14282h-11.14282v-11.14282z" fill="#7b7b7b"/><path d="M110.77042,409.72347v11.14282h-11.14285v-11.14282z" fill="#7b7b7b"/><path d="M110.77042,398.5805v11.14282h-11.14285v-11.14282z" fill="#7b7b7b"/><path d="M99.6276,409.72347v11.14282h-11.14282v-11.14282z" fill="#7b7b7b"/><path d="M88.48478,409.72347v11.14282h-11.14282v-11.14282z" fill="#7b7b7b"/><path d="M88.48478,398.5805v11.14282h-11.14282v-11.14282z" fill="#7b7b7b"/><path d="M77.34197,409.72347v11.14282h-11.14282v-11.14282z" fill="#7b7b7b"/><path d="M77.34197,398.5805v11.14282h-11.14282v-11.14282z" fill="#7b7b7b"/><path d="M66.19915,398.5805v11.14282h-11.14282v-11.14282z" fill="#7b7b7b"/><path d="M55.05633,409.72347v11.14282h-11.14285v-11.14282z" fill="#7b7b7b"/><path d="M55.05633,398.5805v11.14282h-11.14285v-11.14282z" fill="#7b7b7b"/><path d="M43.91354,409.72347v11.14282h-11.14282v-11.14282z" fill="#7b7b7b"/><path d="M32.77069,409.72347v11.14282h-11.14282v-11.14282z" fill="#7b7b7b"/><path d="M32.77069,398.5805v11.14282h-11.14282v-11.14282z" fill="#7b7b7b"/><path d="M21.62784,409.72347v11.14282h-11.14282v-11.14282z" fill="#7b7b7b"/></g><g stroke-width="1"><path d="M10.29043,376.39639v11.14281h-11.14282v-11.14281z" fill="#7b7b7b"/><path d="M10.29043,354.11075v11.14282h-11.14282v-11.14282z" fill="#7b7b7b"/><path d="M10.29043,342.96778v11.14282h-11.14282v-11.14282z" fill="#7b7b7b"/><path d="M-0.85239,387.5392v11.14282h-11.14282v-11.14282z" fill="#7b7b7b"/><path d="M-0.85239,376.39639v11.14281h-11.14282v-11.14281z" fill="#7b7b7b"/><path d="M-0.85239,365.25357v11.14282h-11.14282v-11.14282z" fill="#7b7b7b"/><path d="M-11.99521,387.5392v11.14282h-11.14282v-11.14282z" fill="#7b7b7b"/><path d="M-11.99521,365.25357v11.14282h-11.14282v-11.14282z" fill="#7b7b7b"/><path d="M-11.99521,342.96778v11.14282h-11.14282v-11.14282z" fill="#7b7b7b"/><path d="M-23.13805,387.5392v11.14282h-11.14282v-11.14282z" fill="#7b7b7b"/><path d="M-23.13805,376.39639v11.14281h-11.14282v-11.14281z" fill="#7b7b7b"/><path d="M-23.13805,354.11075v11.14282h-11.14282v-11.14282z" fill="#7b7b7b"/><path d="M-23.13805,342.96778v11.14282h-11.14282v-11.14282z" fill="#7b7b7b"/><path d="M-34.28087,376.39639v11.14281h-11.14282v-11.14281z" fill="#7b7b7b"/><path d="M-34.28087,365.25357v11.14282h-11.14282v-11.14282z" fill="#7b7b7b"/><path d="M-34.28087,354.11075v11.14282h-11.14282v-11.14282z" fill="#7b7b7b"/><path d="M-45.42369,387.5392v11.14282h-11.14282v-11.14282z" fill="#7b7b7b"/><path d="M-45.42369,376.39639v11.14281h-11.14282v-11.14281z" fill="#7b7b7b"/><path d="M-45.42369,354.11075v11.14282h-11.14282v-11.14282z" fill="#7b7b7b"/><path d="M-45.42369,342.96778v11.14282h-11.14282v-11.14282z" fill="#7b7b7b"/><path d="M-56.56651,387.5392v11.14282h-11.14282v-11.14282z" fill="#7b7b7b"/><path d="M-56.56651,376.39639v11.14281h-11.14282v-11.14281z" fill="#7b7b7b"/><path d="M-56.56651,365.25357v11.14282h-11.14282v-11.14282z" fill="#7b7b7b"/><path d="M-56.56651,354.11075v11.14282h-11.14282v-11.14282z" fill="#7b7b7b"/><path d="M-56.56651,342.96778v11.14282h-11.14282v-11.14282z" fill="#502d16"/><path d="M-67.70933,376.39639v11.14281h-11.14282v-11.14281z" fill="#7b7b7b"/><path d="M-67.70933,365.25357v11.14282h-11.14282v-11.14282z" fill="#7b7b7b"/><path d="M-67.70933,342.96778v11.14282h-11.14282v-11.14282z" fill="#7b7b7b"/><path d="M-78.85215,387.5392v11.14282h-11.14281v-11.14282z" fill="#7b7b7b"/><path d="M-78.85215,376.39639v11.14281h-11.14281v-11.14281z" fill="#7b7b7b"/><path d="M-78.85215,365.25357v11.14282h-11.14281v-11.14282z" fill="#7b7b7b"/><path d="M-78.85215,354.11075v11.14282h-11.14281v-11.14282z" fill="#7b7b7b"/><path d="M-78.85215,342.96778v11.14282h-11.14281v-11.14282z" fill="#7b7b7b"/><path d="M-89.99494,387.5392v11.14282h-11.14282v-11.14282z" fill="#7b7b7b"/><path d="M-89.99494,365.25357v11.14282h-11.14282v-11.14282z" fill="#7b7b7b"/><path d="M-89.99494,354.11075v11.14282h-11.14282v-11.14282z" fill="#7b7b7b"/><path d="M-101.13779,387.5392v11.14282h-11.14282v-11.14282z" fill="#7b7b7b"/><path d="M-101.13779,376.39639v11.14281h-11.14282v-11.14281z" fill="#7b7b7b"/><path d="M-101.13779,354.11075v11.14282h-11.14282v-11.14282z" fill="#7b7b7b"/><path d="M-101.13779,342.96778v11.14282h-11.14282v-11.14282z" fill="#7b7b7b"/><path d="M-112.28064,376.39639v11.14281h-11.14282v-11.14281z" fill="#7b7b7b"/><path d="M-112.28064,365.25357v11.14282h-11.14282v-11.14282z" fill="#7b7b7b"/><path d="M-112.28064,354.11075v11.14282h-11.14282v-11.14282z" fill="#7b7b7b"/><path d="M-56.56651,398.68202v11.14282h-11.14282v-11.14282z" fill="#502d16"/><g fill="#7b7b7b"><path d="M10.2904,320.78757v11.14282h-11.14282v-11.14282z"/><path d="M10.2904,298.50193v11.14282h-11.14282v-11.14282z"/><path d="M10.2904,287.35897v11.14281h-11.14282v-11.14281z"/><path d="M-0.85242,331.93039v11.14284h-11.14282v-11.14284z"/><path d="M-0.85242,320.78757v11.14282h-11.14282v-11.14282z"/><path d="M-0.85242,309.64475v11.14282h-11.14282v-11.14282z"/><path d="M-11.99521,331.93039v11.14284h-11.14282v-11.14284z"/><path d="M-11.99521,309.64475v11.14282h-11.14282v-11.14282z"/><path d="M-11.99521,287.35897v11.14281h-11.14282v-11.14281z"/><path d="M-23.13805,331.93039v11.14284h-11.14285v-11.14284z"/><path d="M-23.13805,320.78757v11.14282h-11.14285v-11.14282z"/><path d="M-23.13805,298.50193v11.14282h-11.14285v-11.14282z"/><path d="M-23.13805,287.35897v11.14281h-11.14285v-11.14281z"/><path d="M-34.28087,320.78757v11.14282h-11.14282v-11.14282z"/><path d="M-34.28087,309.64475v11.14282h-11.14282v-11.14282z"/><path d="M-34.28087,298.50193v11.14282h-11.14282v-11.14282z"/><path d="M-45.42369,331.93039v11.14284h-11.14282v-11.14284z"/><path d="M-45.42369,320.78757v11.14282h-11.14282v-11.14282z"/><path d="M-45.42369,298.50193v11.14282h-11.14282v-11.14282z"/><path d="M-45.42369,287.35897v11.14281h-11.14282v-11.14281z"/><path d="M-56.56651,331.93039v11.14284h-11.14282v-11.14284z"/><path d="M-56.56651,320.78757v11.14282h-11.14282v-11.14282z"/><path d="M-56.56651,309.64475v11.14282h-11.14282v-11.14282z"/><path d="M-56.56651,298.50193v11.14282h-11.14282v-11.14282z"/><path d="M-56.56651,287.35897v11.14281h-11.14282v-11.14281z"/><path d="M-67.70933,320.78757v11.14282h-11.14282v-11.14282z"/><path d="M-67.70933,309.64475v11.14282h-11.14282v-11.14282z"/><path d="M-67.70933,287.35897v11.14281h-11.14282v-11.14281z"/><path d="M-78.85215,331.93039v11.14284h-11.14284v-11.14284z"/><path d="M-78.85215,320.78757v11.14282h-11.14284v-11.14282z"/><path d="M-78.85215,309.64475v11.14282h-11.14284v-11.14282z"/><path d="M-78.85215,298.50193v11.14282h-11.14284v-11.14282z"/><path d="M-78.85215,287.35897v11.14281h-11.14284v-11.14281z"/><path d="M-89.99494,331.93039v11.14284h-11.14282v-11.14284z"/><path d="M-89.99494,309.64475v11.14282h-11.14282v-11.14282z"/><path d="M-89.99494,298.50193v11.14282h-11.14282v-11.14282z"/><path d="M-101.13779,331.93039v11.14284h-11.14282v-11.14284z"/><path d="M-101.13779,320.78757v11.14282h-11.14282v-11.14282z"/><path d="M-101.13779,298.50193v11.14282h-11.14282v-11.14282z"/><path d="M-101.13779,287.35897v11.14281h-11.14282v-11.14281z"/><path d="M-112.28064,320.78757v11.14282h-11.14282v-11.14282z"/><path d="M-112.28064,309.64475v11.14282h-11.14282v-11.14282z"/><path d="M-112.28064,298.50193v11.14282h-11.14282v-11.14282z"/><path d="M-56.56651,343.07321v11.14282h-11.14282v-11.14282z"/></g><path d="M10.2904,409.72347v11.14282h-11.14282v-11.14282z" fill="#7b7b7b"/><path d="M10.2904,398.58051v11.14281h-11.14282v-11.14281z" fill="#7b7b7b"/><path d="M-11.99521,398.58051v11.14281h-11.14282v-11.14281z" fill="#7b7b7b"/><path d="M-23.13805,409.72347v11.14282h-11.14285v-11.14282z" fill="#7b7b7b"/><path d="M-23.13805,398.58051v11.14281h-11.14285v-11.14281z" fill="#7b7b7b"/><path d="M-34.28087,409.72347v11.14282h-11.14282v-11.14282z" fill="#7b7b7b"/><path d="M-45.42369,409.72347v11.14282h-11.14282v-11.14282z" fill="#7b7b7b"/><path d="M-45.42369,398.58051v11.14281h-11.14282v-11.14281z" fill="#7b7b7b"/><path d="M-56.56651,409.72347v11.14282h-11.14282v-11.14282z" fill="#7b7b7b"/><path d="M-56.56651,398.58051v11.14281h-11.14282v-11.14281z" fill="#7b7b7b"/><path d="M-67.70933,398.58051v11.14281h-11.14282v-11.14281z" fill="#7b7b7b"/><path d="M-78.85215,409.72347v11.14282h-11.14284v-11.14282z" fill="#7b7b7b"/><path d="M-78.85215,398.58051v11.14281h-11.14284v-11.14281z" fill="#7b7b7b"/><path d="M-89.99494,409.72347v11.14282h-11.14282v-11.14282z" fill="#7b7b7b"/><path d="M-101.13779,409.72347v11.14282h-11.14282v-11.14282z" fill="#7b7b7b"/><path d="M-101.13779,398.58051v11.14281h-11.14282v-11.14281z" fill="#7b7b7b"/><path d="M-112.28064,409.72347v11.14282h-11.14282v-11.14282z" fill="#7b7b7b"/></g></g></g></svg>