<svg version="1.1" xmlns="http://www.w3.org/2000/svg" xmlns:xlink="http://www.w3.org/1999/xlink" width="49.41027" height="49.00702" viewBox="0,0,49.41027,49.00702"><g transform="translate(-295.29487,-155.4965)"><g stroke="none" stroke-miterlimit="10"><path d="M295.29487,204.50352v-48.61368h49.41026v48.61368z" fill="#9d582a"/><path d="M320,183.80452v-4.11752h4.11752v4.11752z" fill="#502d16"/><g fill="#74411f"><path d="M320,163.21686v-4.11752h4.11752v4.11752z"/><g><path d="M295.29487,171.4519v-4.11752h4.11752v4.11752z"/><path d="M295.29487,179.68694v-4.11752h4.11752v4.11752z"/><path d="M295.29487,183.80452v-4.11752h4.11752v4.11752z"/><path d="M299.41239,167.33438v-4.11752h4.11752v4.11752z"/><path d="M299.41239,171.4519v-4.11752h4.11752v4.11752z"/><path d="M299.41239,175.56942v-4.11752h4.11752v4.11752z"/><path d="M303.52992,167.33438v-4.11752h4.11752v4.11752z"/><path d="M303.52992,175.56942v-4.11752h4.11752v4.11752z"/><path d="M303.52992,183.80452v-4.11752h4.11752v4.11752z"/><path d="M307.64744,167.33438v-4.11752h4.11752v4.11752z"/><path d="M307.64744,171.4519v-4.11752h4.11752v4.11752z"/><path d="M307.64744,179.68694v-4.11752h4.11752v4.11752z"/><path d="M307.64744,183.80452v-4.11752h4.11752v4.11752z"/><path d="M311.76496,171.4519v-4.11752h4.11752v4.11752z"/><path d="M311.76496,175.56942v-4.11752h4.11752v4.11752z"/><path d="M311.76496,179.68694v-4.11752h4.11752v4.11752z"/><path d="M315.88248,167.33438v-4.11752h4.11752v4.11752z"/><path d="M315.88248,171.4519v-4.11752h4.11752v4.11752z"/><path d="M315.88248,179.68694v-4.11752h4.11752v4.11752z"/><path d="M315.88248,183.80452v-4.11752h4.11752v4.11752z"/><path d="M320,167.33438v-4.11752h4.11752v4.11752z"/><path d="M320,171.4519v-4.11752h4.11752v4.11752z"/><path d="M320,175.56942v-4.11752h4.11752v4.11752z"/><path d="M320,179.68694v-4.11752h4.11752v4.11752z"/><path d="M324.11752,171.4519v-4.11752h4.11752v4.11752z"/><path d="M324.11752,175.56942v-4.11752h4.11752v4.11752z"/><path d="M324.11752,183.80452v-4.11752h4.11752v4.11752z"/><path d="M328.23505,167.33438v-4.11752h4.11752v4.11752z"/><path d="M328.23505,171.4519v-4.11752h4.11752v4.11752z"/><path d="M328.23505,175.56942v-4.11752h4.11752v4.11752z"/><path d="M328.23505,179.68694v-4.11752h4.11752v4.11752z"/><path d="M328.23505,183.80452v-4.11752h4.11752v4.11752z"/><path d="M332.35257,167.33438v-4.11752h4.11752v4.11752z"/><path d="M332.35257,175.56942v-4.11752h4.11752v4.11752z"/><path d="M332.35257,179.68694v-4.11752h4.11752v4.11752z"/><path d="M336.47009,167.33438v-4.11752h4.11752v4.11752z"/><path d="M336.47009,171.4519v-4.11752h4.11752v4.11752z"/><path d="M336.47009,179.68694v-4.11752h4.11752v4.11752z"/><path d="M336.47009,183.80452v-4.11752h4.11752v4.11752z"/><path d="M340.58762,171.4519v-4.11752h4.11752v4.11752z"/><path d="M340.58762,175.56942v-4.11752h4.11752v4.11752z"/><path d="M340.58762,179.68694v-4.11752h4.11752v4.11752z"/><g><path d="M295.29488,192.0006v-4.11752h4.11752v4.11752z"/><path d="M295.29488,200.23564v-4.11752h4.11752v4.11752z"/><path d="M295.29488,204.35322v-4.11752h4.11752v4.11752z"/><path d="M299.4124,187.88308v-4.11753h4.11752v4.11753z"/><path d="M299.4124,192.0006v-4.11752h4.11752v4.11752z"/><path d="M299.4124,196.11812v-4.11752h4.11752v4.11752z"/><path d="M303.52992,187.88308v-4.11753h4.11752v4.11753z"/><path d="M303.52992,196.11812v-4.11752h4.11752v4.11752z"/><path d="M303.52992,204.35322v-4.11752h4.11752v4.11752z"/><path d="M307.64744,187.88308v-4.11753h4.11753v4.11753z"/><path d="M307.64744,192.0006v-4.11752h4.11753v4.11752z"/><path d="M307.64744,200.23564v-4.11752h4.11753v4.11752z"/><path d="M307.64744,204.35322v-4.11752h4.11753v4.11752z"/><path d="M311.76496,192.0006v-4.11752h4.11752v4.11752z"/><path d="M311.76496,196.11812v-4.11752h4.11752v4.11752z"/><path d="M311.76496,200.23564v-4.11752h4.11752v4.11752z"/><path d="M315.88248,187.88308v-4.11753h4.11752v4.11753z"/><path d="M315.88248,192.0006v-4.11752h4.11752v4.11752z"/><path d="M315.88248,200.23564v-4.11752h4.11752v4.11752z"/><path d="M315.88248,204.35322v-4.11752h4.11752v4.11752z"/><path d="M320,187.88308v-4.11753h4.11752v4.11753z"/><path d="M320,192.0006v-4.11752h4.11752v4.11752z"/><path d="M320,196.11812v-4.11752h4.11752v4.11752z"/><path d="M320,200.23564v-4.11752h4.11752v4.11752z"/><path d="M320,204.35322v-4.11752h4.11752v4.11752z"/><path d="M324.11752,192.0006v-4.11752h4.11752v4.11752z"/><path d="M324.11752,196.11812v-4.11752h4.11752v4.11752z"/><path d="M324.11752,204.35322v-4.11752h4.11752v4.11752z"/><path d="M328.23505,187.88308v-4.11753h4.11753v4.11753z"/><path d="M328.23505,192.0006v-4.11752h4.11753v4.11752z"/><path d="M328.23505,196.11812v-4.11752h4.11753v4.11752z"/><path d="M328.23505,200.23564v-4.11752h4.11753v4.11752z"/><path d="M328.23505,204.35322v-4.11752h4.11753v4.11752z"/><path d="M332.35257,187.88308v-4.11753h4.11752v4.11753z"/><path d="M332.35257,196.11812v-4.11752h4.11752v4.11752z"/><path d="M332.35257,200.23564v-4.11752h4.11752v4.11752z"/><path d="M336.4701,187.88308v-4.11753h4.11752v4.11753z"/><path d="M336.4701,192.0006v-4.11752h4.11752v4.11752z"/><path d="M336.4701,200.23564v-4.11752h4.11752v4.11752z"/><path d="M336.4701,204.35322v-4.11752h4.11752v4.11752z"/><path d="M340.58762,192.0006v-4.11752h4.11752v4.11752z"/><path d="M340.58762,196.11812v-4.11752h4.11752v4.11752z"/><path d="M340.58762,200.23564v-4.11752h4.11752v4.11752z"/><path d="M320,183.76556v-4.11752h4.11752v4.11752z"/></g></g></g><path d="M295.29487,155.4965h49.41026v8.68923c0,0 -4.12085,0.6201 -6.17628,0.42383c-1.91781,-0.18316 -3.70858,-1.37383 -5.63051,-1.48357c-2.43858,-0.13915 -4.82751,1.14885 -7.26782,1.05973c-2.27942,-0.08335 -4.44264,-1.40034 -6.72205,-1.48357c-1.70731,-0.06222 -3.40314,0.39227 -5.08474,0.74175c-1.7131,0.35604 -3.34559,1.30942 -5.08475,1.3776c-2.45308,0.09606 -4.81441,-1.29386 -7.26782,-1.3776c-2.06878,-0.07058 -6.17628,0.74182 -6.17628,0.74182z" fill="#217821"/></g></g></svg>