<svg version="1.1" xmlns="http://www.w3.org/2000/svg" xmlns:xlink="http://www.w3.org/1999/xlink" width="149.42443" height="58.74655" viewBox="0,0,149.42443,58.74655"><g transform="translate(-245.04246,-100.03519)"><g stroke="none" stroke-miterlimit="10"><path d="M245.04246,112.7044c0,-5.52285 4.42925,-10 9.89301,-10h129.63841c5.46376,0 9.89301,4.47715 9.89301,10v44.53941c-1.80412,-0.08166 -3.73586,0.11718 -4.75925,0.18089c-0.92384,0.05751 -1.91008,0.07145 -2.925,0.08103c-1.73858,-1.49384 -3.99636,-2.40043 -6.46563,-2.41205c-0.01601,-0.00008 -0.03204,-0.00011 -0.04807,-0.00011c-0.31279,0 -0.62223,0.01436 -0.92769,0.04246c-3.79447,0.23238 -8.14119,1.22601 -9.34344,1.42014c-9.86435,1.59279 -20.03569,2.02544 -30.18279,2.22017c-6.00457,-0.0065 -12.00915,-0.01553 -18.01369,0.00287c-2.80813,0.0086 -5.61722,-0.00512 -8.42617,-0.03331c-2.24569,-0.14974 -4.37717,-0.25025 -6.13279,-0.49186c-7.13974,-0.98261 -14.23442,-2.58094 -21.45978,-2.32282c-5.92367,0.21162 -11.56225,2.48843 -17.61341,2.34541c-4.93966,-0.11675 -11.3775,-2.5563 -16.59115,-1.17727c-2.23002,-0.04391 -4.45942,0.00986 -6.53556,0.20952z" fill="#000000" stroke-width="NaN"/><text transform="translate(313.04868,136.1924) scale(0.8312,0.8312)" font-size="40" xml:space="preserve" fill="#ff00e9" stroke-width="1" font-family="Sans Serif" font-weight="normal" text-anchor="start"><tspan x="0" dy="0">?</tspan></text></g></g></svg>