<svg version="1.1" xmlns="http://www.w3.org/2000/svg" xmlns:xlink="http://www.w3.org/1999/xlink" width="59.12719" height="51.50182" viewBox="0,0,59.12719,51.50182"><defs><linearGradient x1="316.23131" y1="103.69914" x2="322.39026" y2="127.71963" gradientUnits="userSpaceOnUse" id="color-1"><stop offset="0" stop-color="#0051ff"/><stop offset="1" stop-color="#00b90f"/></linearGradient></defs><g transform="translate(-286.90323,-102.07499)"><g stroke-miterlimit="10"><path d="M287.56948,149.91103c0,0 0.1303,-0.47777 -0.34393,-0.61203c0.00195,-0.02087 0.00195,-0.03325 0.00195,-0.03325l-0.00173,-0.11259c0.01816,-0.21977 0.00075,-0.43973 -0.03929,-0.65798h0.09239v-0.51226c0.06942,-0.06652 0.11969,-0.15287 0.14172,-0.24994l0.15158,-0.60631l-0.00475,-0.00119l0.0075,-0.01039c0.03468,-0.1732 0.05268,-0.34838 0.05916,-0.52469l0.04386,0.00975l0.20315,-0.91416c0.00931,-0.03814 0.01425,-0.07799 0.01425,-0.11899c0,-0.24996 -0.18342,-0.45708 -0.42302,-0.49411c0.70419,-2.66828 1.10884,-5.64127 1.44659,-8.33116c0,0 0.05531,-0.4425 -0.35643,-0.54394c0.1543,-1.09404 0.31125,-2.1712 0.55387,-3.26248c0,0 0.00058,-0.00263 0.00147,-0.00755c0.66851,-2.3502 1.19842,-4.87471 0.88454,-7.0234l0.02008,-0.07362l0.07939,0.00794l0.0507,-0.50702c0.00208,-0.01853 0.00315,-0.03736 0.00315,-0.05644c0,-0.17637 -0.09132,-0.33141 -0.22925,-0.42042l0.04298,-0.45154c0.23411,-1.19785 0.40577,-2.38617 0.42125,-3.46317c0.00756,-0.09794 0.01403,-0.19608 0.01924,-0.29451c0.01839,-0.0948 0.03658,-0.18964 0.05455,-0.28451l0.10988,0.0157l0.10455,-0.73186l0.10154,-0.22847l-0.0077,-0.00342l0.01535,-0.01477c0.21712,-0.61506 0.3463,-0.9586 0.38302,-1.31079c0.01536,-0.04115 0.03012,-0.08254 0.04426,-0.12416l-0.03428,-0.02541c0.00008,-0.00281 0.00016,-0.00563 0.00023,-0.00845l0.04037,0.00932l0.02026,-0.08779l0.03711,0.00619l0.10119,-0.60717c0.00548,-0.02966 0.00835,-0.06024 0.00835,-0.09149c0,-0.2278 -0.15234,-0.42002 -0.3607,-0.48034c0.00073,-0.01103 0.0011,-0.02216 0.0011,-0.03338c0,-0.00482 -0.00007,-0.00962 -0.0002,-0.01441l0.09792,-0.68545l-0.02255,-0.00322l0.02726,-0.04985c-0.00695,-0.01728 -0.0139,-0.03456 -0.02085,-0.05185l0.01989,-0.00142l-0.02168,-0.3035c0.00781,-0.01967 0.01506,-0.03945 0.02175,-0.0593l0.04755,0.00679l0.10153,-0.71069c0.00411,-0.0258 0.00624,-0.05227 0.00624,-0.07923c0,-0.09379 -0.02582,-0.18155 -0.07075,-0.25655l0.06395,-0.17496c0.13428,-0.8062 0.24535,-1.58828 0.31331,-2.40377c0.25218,-3.07761 1.16889,-6.25585 1.1654,-9.35736h52.93838c-0.86808,2.77037 -0.56779,6.44485 -0.79734,9.24594c-0.61004,3.02427 -0.41356,6.31636 -1.31949,9.27587l-0.03986,0.02044c0,0 -0.10705,0.16058 -0.08838,0.34872c-0.4861,1.27446 -0.69023,2.87441 -0.53754,4.33558c-0.0634,0.11371 -0.07279,0.22635 -0.07279,0.22635c-0.14333,1.74067 -0.5136,3.42198 -0.51544,5.17868l-0.04831,0.40713c0,0 -0.0182,0.16382 0.06036,0.3138c-0.01204,0.05932 -0.01204,0.10102 -0.01204,0.10102v0.30823c0.00015,0.18596 0.03086,0.36886 0.08103,0.54863l-0.07931,0.00661l0.03233,0.38797c-0.41917,2.19844 -0.77587,4.40635 -0.87767,6.63804c-0.26709,0.08036 -0.32823,0.38604 -0.32823,0.38604c-0.148,0.74419 -0.16382,1.44792 -0.16382,2.20429l-0.04751,0.34896c0,0 -0.03884,0.31071 0.19084,0.47109c-0.00216,0.06181 -0.00253,0.12213 -0.00096,0.18221c-0.00875,0.04981 -0.01771,0.09919 -0.02686,0.14816l-0.06286,-0.00449l-0.03517,0.49237c-0.12655,0.59725 -0.25849,1.14382 -0.30627,1.70106l-0.01183,0.06702l0.00641,0.00113c-0.00491,0.0672 -0.00854,0.13459 -0.01075,0.20227c-0.04108,0.13374 -0.07436,0.26955 -0.09749,0.4078l-0.00015,0.00075l-0.0577,-0.00525l-0.01694,0.18631c-0.19179,0.0626 -0.33258,0.23803 -0.34397,0.44788l-0.05114,0.81829l0.00587,0.00037l-0.0066,0.01522c-0.0001,0.30912 0.0043,0.56603 0.0184,0.79849l-0.01643,0.1972c-0.00146,0.01559 -0.00221,0.03138 -0.00221,0.04735c0,0.09315 0.02547,0.18035 0.06983,0.25501c0.0064,0.0425 0.01335,0.08487 0.0209,0.12733l-0.08996,0.005l0.03847,0.6924c-0.11978,0.26896 -0.24499,0.53572 -0.37052,0.80232c-0.03431,0.04676 -0.06447,0.10343 -0.07976,0.16939c-0.08534,0.18139 -0.17033,0.3629 -0.25338,0.54519c-0.36302,0.08177 -0.36302,0.48567 -0.36302,0.48567c0.00099,0.47809 0.08158,1.00851 0.23197,1.53696c-3.42281,-0.39536 -6.96726,-0.55326 -10.51484,-0.59226c-11.39869,-0.12533 -20.97931,-4.05737 -32.88821,-0.3005c-1.69893,0.53596 -5.38642,-0.81656 -7.2896,-0.88387c-0.56784,-0.02008 -1.14367,-0.03132 -1.72496,-0.03223c0.2857,-0.63351 0.50768,-1.28073 0.66626,-1.85691z" fill="#000000" stroke="none" stroke-width="0" stroke-linecap="butt"/><path d="" fill="#000000" stroke="none" stroke-width="0" stroke-linecap="butt"/><path d="" fill="#000000" stroke="none" stroke-width="0" stroke-linecap="butt"/><path d="" fill="#000000" stroke="none" stroke-width="0" stroke-linecap="butt"/><path d="" fill="#000000" stroke="none" stroke-width="0" stroke-linecap="butt"/><path d="" fill="#000000" stroke="none" stroke-width="0" stroke-linecap="butt"/><path d="" fill="#000000" stroke="none" stroke-width="0" stroke-linecap="butt"/><path d="M345.03042,103.07499l-5.67825,46.9023" fill="none" stroke="#ffffff" stroke-width="2" stroke-linecap="round"/><path d="M324.25071,127.2426l-17.42724,-10.31422l7.27885,-12.29846c0.35815,-0.60503 1.13905,-0.80526 1.74406,-0.44718l1.58329,0.93692c0.45546,0.26963 0.69666,0.79275 0.60578,1.31418l-0.14331,0.82271l0.60846,-0.51219c0.41376,-0.34854 1.00269,-0.39729 1.46835,-0.12169l5.04399,2.98526c0.52357,0.30973 0.75471,0.94671 0.55187,1.52015l-1.62434,4.59183l3.2133,-3.64269c0.40422,-0.45816 1.0773,-0.56458 1.60318,-0.25334l2.32532,1.37623c0.60511,0.35813 0.80534,1.13903 0.44718,1.74406zM322.89537,129.53251l-2.10717,3.56034c-0.35807,0.60501 -1.13905,0.80526 -1.74406,0.44718l-3.37719,-1.99877c-0.6491,-0.3841 -1.42781,-0.4508 -2.13771,-0.18387c-0.70751,0.26666 -1.24822,0.83123 -1.48333,1.54912c-3.00937,9.1888 -3.55701,10.11422 -3.73701,10.41824c-1.28968,2.17932 -4.11408,2.90719 -6.29778,1.61477c-2.18155,-1.29121 -2.90592,-4.11633 -1.61477,-6.29778c0.17984,-0.30398 0.72729,-1.22909 7.33472,-8.28903c0.51741,-0.5529 0.75299,-1.29903 0.64624,-2.0472c-0.1068,-0.74868 -0.54122,-1.39899 -1.19189,-1.78408l-3.37719,-1.99877c-0.29064,-0.17187 -0.50098,-0.4523 -0.58484,-0.77936c-0.08386,-0.32705 -0.0343,-0.67404 0.13768,-0.96461l2.10711,-3.56023zM305.32536,139.33968c-0.85522,-0.50623 -1.95889,-0.22324 -2.46509,0.63206c-0.50623,0.85522 -0.22324,1.95889 0.63206,2.46509c0.85522,0.50623 1.95889,0.22324 2.46509,-0.63206c0.50621,-0.8553 0.22322,-1.95897 -0.63206,-2.46509z" fill="url(#color-1)" stroke="none" stroke-width="1" stroke-linecap="butt"/></g></g></svg>