<svg version="1.1" xmlns="http://www.w3.org/2000/svg" xmlns:xlink="http://www.w3.org/1999/xlink" width="88.95348" height="56.77275" viewBox="0,0,88.95348,56.77275"><g transform="translate(-275.57597,-151.60701)"><g fill="#ffffff" stroke="none" stroke-width="0" stroke-miterlimit="10"><path d="M291.27365,173.3512c0,-8.02739 6.50749,-14.53488 14.53488,-14.53488c8.02739,0 14.53488,6.50749 14.53488,14.53488c0,8.02739 -6.50749,14.53488 -14.53488,14.53488c-8.02739,0 -14.53488,-6.50749 -14.53488,-14.53488z"/><path d="M275.57597,191.66515c0,-9.15123 7.41854,-16.56977 16.56977,-16.56977c9.15123,0 16.56977,7.41854 16.56977,16.56977c0,9.15123 -7.41854,16.56977 -16.56977,16.56977c-9.15123,0 -16.56977,-7.41854 -16.56977,-16.56977z"/><path d="M306.85504,171.66515c0,-11.0778 8.98033,-20.05814 20.05814,-20.05814c11.0778,0 20.05814,8.98033 20.05814,20.05814c0,11.0778 -8.98033,20.05814 -20.05814,20.05814c-11.0778,0 -20.05814,-8.98033 -20.05814,-20.05814z"/><path d="M325.69225,189.01929c0,-10.69249 8.69401,-19.36047 19.4186,-19.36047c10.7246,0 19.4186,8.66798 19.4186,19.36047c0,10.69249 -8.69401,19.36047 -19.4186,19.36047c-10.7246,0 -19.4186,-8.66798 -19.4186,-19.36047z"/><path d="M290.63717,208.17576v-26.16279h57.0767v26.16279z"/></g></g></svg>