<svg version="1.1" xmlns="http://www.w3.org/2000/svg" xmlns:xlink="http://www.w3.org/1999/xlink" width="48.9652" height="51.11066" viewBox="0,0,48.9652,51.11066"><g transform="translate(-245.54348,-102.07501)"><g stroke-miterlimit="10"><path d="M245.54348,112.50003c0,-5.52285 4.47715,-10 10,-10h38.59185c0.00189,0.00869 0.00379,0.01738 0.00571,0.02607c-0.03726,0.04366 -0.05976,0.10031 -0.05976,0.16221c0,0.10532 0.06512,0.19542 0.1573,0.23225c0.01395,0.05138 0.02831,0.10265 0.04303,0.15384c-0.06923,0.04446 -0.1151,0.12213 -0.1151,0.21052v0.24019c-0.10351,0.62256 -0.22931,1.65437 -0.06137,2.41763l-0.01103,0.03309c-0.07219,0.21959 -0.15485,0.52913 -0.2214,0.87047c-0.02965,0.0411 -0.04712,0.09156 -0.04712,0.14611v0.11894c-0.05748,0.35884 -0.09146,0.73521 -0.07418,1.06844c-0.04252,0.2957 -0.08017,0.59479 -0.11377,0.87799c-0.04316,-0.03548 -0.09842,-0.05678 -0.15865,-0.05678c-0.1287,0 -0.23469,0.09725 -0.24848,0.22228l-0.0422,0.33763l0.00521,0.00065l-0.00665,0.01482c-0.00053,0.34161 0.00072,0.57457 0.0425,0.79268c-0.07362,0.60133 -0.09108,1.42531 -0.1116,2.2201c-0.0207,-0.00555 -0.04247,-0.00851 -0.06492,-0.00851c-0.13807,0 -0.25,0.11193 -0.25,0.25v0.34092c0,0.55472 -0.0398,1.09123 0.02549,1.61866c-0.2261,0.83504 -0.34673,1.71344 -0.34673,2.62001c0,0.36771 0.01985,0.73078 0.05853,1.08821c-0.10252,0.41891 -0.25485,0.82699 -0.3597,1.24526l-0.00746,0.1304c0,0 0,0.1292 0.09288,0.20184c-0.06303,0.40807 -0.0879,0.85541 -0.10317,1.26963c-0.09436,0.07242 -0.09436,0.20299 -0.09436,0.20299v0.17442c0,0.29102 0.00919,0.4931 0.0437,0.69769h-0.0437v0.32829c-0.62167,1.13492 -0.53094,3.09155 -0.53805,4.59775c-0.15964,0.05149 -0.15964,0.23688 -0.15964,0.23688c0.00199,0.33798 -0.05771,0.67451 -0.12171,1.01082c-0.19225,0.03518 -0.19225,0.24502 -0.19225,0.24502v0.20931c0.00134,1.05037 -0.35949,2.16832 -0.24233,3.20471l-0.01329,0.07444h-0.05834v0.34885c0,0.06792 0.02708,0.12951 0.07104,0.17457c-0.29422,1.14211 -0.44034,2.18097 -0.55207,3.30723c-0.0665,0.35488 -0.1139,0.6907 -0.0939,1.03717c-0.00567,0.06687 -0.01133,0.13418 -0.01702,0.20199l-0.00234,0.02335h-0.03364v0.34885c0,0.06237 0.02284,0.11941 0.06061,0.1632c-0.46604,1.26265 -0.39195,2.47211 -0.54747,3.8558l-0.00153,0.20203c0,0 0,0.04962 0.02211,0.10465c-0.02211,0.05503 -0.02211,0.10465 -0.02211,0.10465c0.00118,0.36603 -0.05977,0.70538 -0.11653,1.05529c-0.07316,0.06218 -0.08937,0.15946 -0.08937,0.15946l-0.03765,0.2326l-0.0347,0.48581c-0.00054,0.00672 -0.00082,0.01352 -0.00082,0.02039c0,0.09471 0.05266,0.17711 0.1303,0.21953c-0.22583,0.73465 -0.31164,1.55988 -0.37346,2.23464l-0.00103,0.16217c0,0 0,0.056 0.0265,0.11499c-0.086,0.39266 -0.1626,0.77813 -0.1999,1.18799l-0.00103,0.0924c0,0 0,0.12132 0.08451,0.19493c-0.00013,0.0004 -0.00026,0.0008 -0.00038,0.0012c-0.04047,0.05989 -0.04772,0.1251 -0.04772,0.1251c-0.02328,0.20976 -0.04216,0.42001 -0.05907,0.6304c-0.00125,0.00603 -0.00249,0.01207 -0.00373,0.01811c-0.04337,0.06879 -0.04337,0.14655 -0.04337,0.14655v0.27908c0,0.08613 0.04355,0.16208 0.10984,0.20704c-0.02485,0.18797 -0.04934,0.37599 -0.073,0.56411l-0.00195,0.06608c0,0 0,0.1736 0.14466,0.23148c-0.01023,0.06012 -0.02079,0.2317 0.17619,0.28798c0.08999,0.02571 0.15592,0.00811 0.20319,-0.02399c-0.09854,0.32091 -0.17064,0.65329 -0.22341,0.98799c-0.44724,-0.03706 -0.89925,-0.06427 -1.35586,-0.08139c-3.72081,-0.13948 -7.03182,0.38184 -10.60896,0.39479c-12.1957,0.04416 -21.41785,-1.26235 -31.68617,0.9907z" fill="#000000" stroke="none" stroke-width="0" stroke-linecap="butt"/><path d="" fill="#000000" stroke="none" stroke-width="0" stroke-linecap="butt"/><path d="" fill="#000000" stroke="none" stroke-width="0" stroke-linecap="butt"/><path d="" fill="#000000" stroke="none" stroke-width="0" stroke-linecap="butt"/><path d="" fill="#000000" stroke="none" stroke-width="0" stroke-linecap="butt"/><path d="" fill="#000000" stroke="none" stroke-width="0" stroke-linecap="butt"/><path d="" fill="#000000" stroke="none" stroke-width="0" stroke-linecap="butt"/><path d="" fill="#000000" stroke="none" stroke-width="0" stroke-linecap="butt"/><path d="" fill="#000000" stroke="none" stroke-width="0" stroke-linecap="butt"/><path d="" fill="#000000" stroke="none" stroke-width="0" stroke-linecap="butt"/><path d="" fill="#000000" stroke="none" stroke-width="0" stroke-linecap="butt"/><path d="" fill="#000000" stroke="none" stroke-width="0" stroke-linecap="butt"/><path d="" fill="#000000" stroke="none" stroke-width="0" stroke-linecap="butt"/><path d="" fill="#000000" stroke="none" stroke-width="0" stroke-linecap="butt"/><path d="" fill="#000000" stroke="none" stroke-width="0" stroke-linecap="butt"/><path d="" fill="#000000" stroke="none" stroke-width="0" stroke-linecap="butt"/><path d="" fill="#000000" stroke="none" stroke-width="0" stroke-linecap="butt"/><path d="M293.87675,143.13587c0.00121,-0.01153 0.00241,-0.02306 0.00361,-0.03459c0.00165,0.01177 0.00331,0.02351 0.00499,0.03522c-0.00285,-0.00026 -0.00572,-0.00047 -0.0086,-0.00063z" fill="#000000" stroke="none" stroke-width="0" stroke-linecap="butt"/><path d="" fill="#000000" stroke="none" stroke-width="0" stroke-linecap="butt"/><path d="" fill="#000000" stroke="none" stroke-width="0" stroke-linecap="butt"/><path d="" fill="#000000" stroke="none" stroke-width="0" stroke-linecap="butt"/><path d="M293.50868,103.07501l-5.67825,46.90229" fill="none" stroke="#ffffff" stroke-width="2" stroke-linecap="round"/><path d="" fill="#000000" stroke="none" stroke-width="0" stroke-linecap="butt"/><path d="M247.31332,143.85096v-6.82873h15.05423v6.82873z" fill="#9966ff" stroke="#000000" stroke-width="2" stroke-linecap="butt"/><path d="M264.14121,133.34922v-6.82873h15.05423v6.82873z" fill="#9966ff" stroke="#000000" stroke-width="2" stroke-linecap="butt"/><path d="M272.99497,122.21193v-6.82873h15.05423v6.82873z" fill="#9966ff" stroke="#000000" stroke-width="2" stroke-linecap="butt"/><path d="M249.36785,113.62717v-6.82873h15.05423v6.82873z" fill="#9966ff" stroke="#000000" stroke-width="2" stroke-linecap="butt"/><g stroke="none" stroke-width="1" stroke-linecap="butt"><path d="M251.87045,136.97532c-0.07381,0.3249 -0.17625,0.68666 -0.49351,0.84567c-0.32422,0.16207 -0.7558,0.15119 -1.11255,0.17965c-0.17319,0.01334 -0.34316,0.00527 -0.51805,0.00909c-0.1252,0.00246 -0.31717,0.03194 -0.42598,-0.04527c0.11994,-0.05122 0.25287,-0.05538 0.37043,-0.11858c0.10448,-0.06175 0.2025,-0.13378 0.29271,-0.21507c0.13709,-0.11586 0.28328,-0.26323 0.34979,-0.43337c0.16682,-0.42844 0.00943,-1.14882 0.06787,-1.59374c0.03355,-0.01232 1.299,-0.72327 1.77917,-0.6853c0.06294,0.14032 -0.26264,1.8523 -0.30986,2.05692z" fill="#828c00"/><path d="M254.79564,134.24252h1.29407c-0.30179,1.5376 -0.56239,3.26334 -0.59102,3.58509c0.09649,0.03338 0.18814,0.00425 0.27699,0.01164c0.00314,0.03185 0.00561,0.05717 0.00875,0.09012c-0.12665,-0.00739 -0.66806,0.01512 -0.7964,-0.01928c0,-0.10915 -0.19239,-3.66757 -0.19239,-3.66757z" fill="#828c00"/><path d="M250.4054,135.17806c0.01087,-0.79513 -0.02829,-1.88891 0.59458,-2.4914c0.11442,-0.11051 0.27181,-0.1754 0.39387,-0.26705c0.18602,-0.14032 0.40568,-0.24276 0.59458,-0.38206c0.06116,-0.04459 0.1822,-0.14737 0.1822,-0.14737l0.23087,-0.12316l-0.00951,-0.21515c0,0 0.1585,-0.43405 0.18432,-0.57683c0.17005,-0.93231 -0.00909,-1.89486 0.16478,-2.82895c0.01886,-0.10244 0.04196,-0.21329 0.06574,-0.31751l2.57455,-0.326l2.64871,0.1754c0.30808,0.23019 -0.03746,0.54532 -0.29169,0.6667c-0.14975,0.07194 -0.28854,0.14041 -0.41621,0.25024c-0.02769,0.02387 -0.25915,0.20173 -0.33577,0.42946c-0.11645,0.34775 -0.08537,0.81305 -0.09343,1.03865c-0.01503,0.42496 0.00875,0.85408 0.02489,1.2787c0.03177,0.8404 0.06608,1.64921 -0.06056,2.48435c-0.05767,0.38206 -0.11994,0.74493 -0.35318,1.06244c-0.24488,0.33305 -0.53555,0.60775 -0.93146,0.75096c-0.73168,0.26425 -4.15861,0.18033 -4.40061,0.15544c-0.25185,-0.02599 -0.51551,0.01614 -0.76455,-0.01546c-0.03635,-0.18594 -0.00493,-0.4112 -0.00212,-0.60138z" fill="#a0aa1e"/><path d="M253.99066,134.14636c0,0 -0.8974,3.18647 -0.8974,3.72584c0.04825,0.00841 0.30111,-0.02633 0.33781,0.02599c-0.03075,0.10703 -0.6537,0.03822 -0.77993,0.0175c-0.03882,-0.11611 -0.19936,-3.67318 -0.19936,-3.67318z" fill="#a0aa1e"/><path d="M257.88094,129.69319c0.05147,0.01435 0.00561,0.54812 0,0.75444c-0.00629,0.23189 -0.01189,0.46497 -0.02548,0.69617c-0.01435,0.24454 -0.11127,0.50285 -0.33687,0.65302c-0.06574,0.04383 -0.40389,0.19995 -0.6921,0.22314c-0.41451,0.03372 -0.71112,-0.09403 -0.82299,-0.10108l-0.02761,-0.04808c0.0079,-0.11416 0.00917,-0.22875 0.00382,-0.34316c0.08953,-0.01614 0.4473,0.14703 0.78375,0.11934c0.33093,-0.02701 0.64113,-0.24463 0.69082,-0.32982c0.08537,-0.14635 0.11017,-0.31199 0.11747,-0.47898c0.00807,-0.1867 0,-0.37442 0.00314,-0.56146c0.00212,-0.13828 -0.04791,-0.61862 0.00527,-0.61862c0.05317,0 0.0175,0.22773 0.07449,0.23155c0.057,0.00391 0.04306,-0.23894 0.07483,-0.23894c0.03185,0 0.00705,0.2499 0.05708,0.2499c0.04961,0 0.04298,-0.22178 0.09437,-0.20743z" fill="#a0aa1e"/><path d="M254.10219,129.65811c0.05147,0.01435 0.00561,0.54812 0,0.75444c-0.00629,0.23189 -0.01189,0.46488 -0.02548,0.69617c-0.01435,0.24454 -0.14414,0.54422 -0.36975,0.69473c-0.06464,0.04391 -0.37102,0.15824 -0.65922,0.18143c-0.41341,0.03372 -0.87438,-0.09581 -0.87438,-0.09581l0.22136,-0.33823c0.19146,0.05759 0.392,0.07832 0.5911,0.06107c0.33084,-0.02701 0.64113,-0.24463 0.69074,-0.32982c0.08537,-0.14635 0.11017,-0.31199 0.11756,-0.47898c0.00798,-0.1867 0,-0.37442 0.00314,-0.56146c0.00212,-0.13828 -0.04791,-0.61862 0.00527,-0.61862c0.05309,0 0.01741,0.22773 0.07449,0.23155c0.057,0.00391 0.04298,-0.23894 0.07483,-0.23894c0.03185,0 0.00697,0.24981 0.057,0.24981c0.04969,0 0.04196,-0.2217 0.09335,-0.20734z" fill="#828c00"/><g><path d="M257.07086,127.61732c-0.00637,0.20946 -0.02659,0.40389 -0.14627,0.58354l-0.09437,0.04451c-0.25712,-0.05334 -0.2578,-0.44458 -0.21719,-0.64207c0.15773,0.01121 0.30324,-0.00773 0.45783,0.01402z" fill="#ffffff"/><path d="M257.21671,127.5289h0.29729c0.16011,0.8049 -0.52323,0.75759 -0.29729,0z" fill="#ffffff"/><path d="M256.16667,127.4138h0.29729c0.1602,0.8049 -0.52323,0.75793 -0.29729,0z" fill="#dcd2b4"/><path d="M255.73194,127.36539h0.29763c0.15986,0.8049 -0.52357,0.75759 -0.29763,0z" fill="#ffffff"/><path d="M255.30495,127.29276h0.29763c0.15841,0.8049 -0.52468,0.7575 -0.29763,0z" fill="#ffffff"/><path d="M257.65109,127.46222h0.29763c0.15986,0.8049 -0.52357,0.75793 -0.29763,0z" fill="#faf0e6"/><path d="M255.01776,125.78354c0.22348,-0.01087 0.44772,-0.00595 0.67154,-0.01334c0.50225,-0.01682 1.00306,0.00416 1.50566,-0.01368c0.24803,0.04697 0.50438,0.02421 0.75546,0.07679c0.21583,0.04476 0.42182,0.12792 0.60826,0.24565c0.35539,0.2228 0.56732,0.68564 0.58932,1.09658c0.01019,0.19188 -0.03737,0.414 -0.21473,0.51933c-0.19655,0.11645 -0.48968,0.07016 -0.7062,0.07611c-0.55959,0.01198 -1.11918,0.01928 -1.67877,0.01164l-3.73748,0.04663c0.07194,-0.33322 0.17829,-0.65804 0.31717,-0.96917c0.16886,-0.37739 0.47083,-0.67893 0.84779,-0.84635c0.29772,-0.13794 0.95312,-0.2256 1.04197,-0.23019z" fill="#828c00"/><path d="M258.56251,127.28079c0.13191,0 0.30044,0.09794 0.21405,0.25898c-0.07585,0.14211 -0.25219,0.06209 -0.30213,-0.05615c0.01257,-0.07381 0.04281,-0.14338 0.08808,-0.20284z" fill="#645a1e"/><path d="M258.07325,127.5605c-0.15111,0.0993 -0.27249,-0.10703 -0.1997,-0.23656l0.09267,-0.07016c0.15179,-0.00246 0.25041,0.21371 0.10703,0.30672z" fill="#645a1e"/><path d="M259.30132,126.85455c-0.00289,-0.03635 0.01461,-0.07127 0.04536,-0.09063c0.06957,0.01546 0.03848,0.13055 0.01368,0.17302c-0.03347,-0.01427 -0.05623,-0.04604 -0.05903,-0.08239z" fill="#000000"/><path d="M255.78546,126.84003c0.11229,0.0474 0.01121,0.26918 -0.09369,0.12886c0.00416,-0.07161 0.03321,-0.11059 0.09369,-0.12886z" fill="#000000"/></g></g></g></g></svg>