<svg version="1.1" xmlns="http://www.w3.org/2000/svg" xmlns:xlink="http://www.w3.org/1999/xlink" width="106.36809" height="108.31755" viewBox="0,0,106.36809,108.31755"><g transform="translate(-266.81595,-125.84123)"><g fill="#df6530" fill-rule="evenodd" stroke="none" stroke-miterlimit="10"><path d="M371.17464,187.03598c-0.6,0.9 -1.6,1.6 -2.3,2.5c-1.6,2.1 -1.6,4 -0.7,6.4c2,5.2 0.7,11.2 -3.5,14.9c-2,1.8 -4.7,2.9 -7.3,3.2c-3.6,0.4 -3.4,0.4 -6.4,3.3c-2.5,2.6 -3,7 -5.6,9.5c-1.6,1.6 -4.2,4.3 -10.5,3.2c-3.4,-0.7 -5.9,-1.7 -9.2,-2.4c-4.9,-1 -4.3,-0.5 -7.8,2.4c-4.7,3.8 -11.6,6.1 -16.5,1.8c-2.6,-2.3 -3.9,-5.1 -5.9,-7.8c-3,-4.1 -6.4,-3.8 -11,-4.1c-5.2,-0.3 -8.7,-4.9 -8.7,-10.3c-0.1,-3.5 0.4,-7.3 -1.6,-10.5c-1.5,-2.4 -3,-4.2 -4.7,-6.4c-4.4,-5.5 -2.6,-10.9 0.1,-16.6c2,-4.2 -2.9,-6.3 -1.8,-10.4c0.7,-2.6 8.3,-6.2 8.8,-13c0.2,-2.6 -0.6,-10.9 5.1,-10.3c1.7,0.2 4,0.3 5.5,-0.7c1.9,-1.3 1.9,-1.9 2.3,-4c1.2,-6.4 5.2,-9.7 11.8,-7.7c2.5,0.8 4.4,2 7,1.7c2.7,-0.3 4,-2.3 6.2,-3.6c2.4,-1.5 5.9,-2.8 8.8,-2.1c2.8,0.7 3.2,2.9 4.8,5c3.3,4.3 7.3,0.6 11.3,0.1c4.9,-0.6 9,2.2 10,6.4c0.4,1.6 0.9,2.7 2,3.9c1.5,1.6 2.2,1.7 4.2,1.8c2.4,0.1 5.7,1.2 7.4,2.9c4.8,5 0.4,11.6 1,17.6c0.4,4.5 4.1,5.7 6.6,8.8c1.6,1.9 2.5,4.4 2.6,6.9c0.1,2.7 -0.6,5.4 -2,7.6z"/></g></g></svg>