<svg version="1.1" xmlns="http://www.w3.org/2000/svg" xmlns:xlink="http://www.w3.org/1999/xlink" width="49.625" height="49.625" viewBox="0,0,49.625,49.625"><g transform="translate(-295.1875,-155.1875)"><g stroke="none" stroke-miterlimit="10"><g stroke-width="0"><path d="M295.1875,204.8125v-49.625h49.625v49.625z" fill="#ffab4d"/><g fill="#b9762a"><path d="M296.57239,203.52176v-47.06442h6.43058v47.06442z"/><path d="M337.01983,203.52176v-47.15761h6.43058v47.15761z"/><path d="M296.57239,156.36414h46.69162v6.43058h-46.69162z"/><path d="M296.57239,197.18437h46.69162v6.43059h-46.69162z"/></g><g fill="#b9762a"><path d="M304.24987,159.70276l36.04737,36.04737l-4.54711,4.54711l-36.04737,-36.04737z"/><path d="M299.70276,195.75013l36.04737,-36.04738l4.5471,4.54711l-36.04737,36.04737z"/></g></g><g fill-opacity="0.65098" fill="#969696" stroke-width="1"><path d="M341.14175,191.48286v4.09377h-4.09377v-4.09377z"/><path d="M341.14175,187.38909v4.09377h-4.09377v-4.09377z"/><path d="M341.14175,183.29532v4.09377h-4.09377v-4.09377z"/><path d="M337.04798,191.48286v4.09377h-4.09377v-4.09377z"/><path d="M337.04798,183.29532v4.09377h-4.09377v-4.09377z"/><path d="M337.04798,175.10772v4.09377h-4.09377v-4.09377z"/><path d="M332.9542,191.48286v4.09377h-4.09377v-4.09377z"/><path d="M332.9542,187.38909v4.09377h-4.09377v-4.09377z"/><path d="M332.9542,179.20154v4.09377h-4.09377v-4.09377z"/><path d="M332.9542,175.10772v4.09377h-4.09377v-4.09377z"/><path d="M328.86041,187.38909v4.09377h-4.09377v-4.09377z"/><path d="M328.86041,179.20154v4.09377h-4.09377v-4.09377z"/><path d="M324.76665,183.48909v4.09377h-4.09377v-4.09377z"/><path d="M320.67288,191.48286v4.09377h-4.09377v-4.09377z"/><path d="M320.67288,187.38909v4.09377h-4.09377v-4.09377z"/><path d="M320.67288,179.20154v4.09377h-4.09377v-4.09377z"/><path d="M316.5791,187.38909v4.09377h-4.09377v-4.09377z"/><path d="M316.5791,183.29532v4.09377h-4.09377v-4.09377z"/><path d="M316.5791,175.10772v4.09377h-4.09377v-4.09377z"/><path d="M312.48532,191.48286v4.09377h-4.09377v-4.09377z"/><path d="M312.48532,179.20154v4.09377h-4.09377v-4.09377z"/><path d="M308.39157,191.48286v4.09377h-4.09377v-4.09377z"/><path d="M308.39157,179.20154v4.09377h-4.09377v-4.09377z"/><path d="M304.29778,187.38909v4.09377h-4.09377v-4.09377z"/><path d="M304.29778,179.20154v4.09377h-4.09377v-4.09377z"/><path d="M304.29778,175.10772v4.09377h-4.09377v-4.09377z"/><path d="M341.14174,171.05268v4.09378h-4.09377v-4.09378z"/><path d="M341.14174,166.9589v4.09377h-4.09377v-4.09377z"/><path d="M341.14174,162.86513v4.09377h-4.09377v-4.09377z"/><path d="M337.04798,162.86513v4.09377h-4.09377v-4.09377z"/><path d="M332.9542,171.05268v4.09378h-4.09378v-4.09378z"/><path d="M332.9542,166.9589v4.09377h-4.09378v-4.09377z"/><path d="M332.9542,158.77136v4.09377h-4.09378v-4.09377z"/><path d="M328.86041,166.9589v4.09377h-4.09377v-4.09377z"/><path d="M328.86041,162.86513v4.09377h-4.09377v-4.09377z"/><path d="M324.76665,171.05268v4.09378h-4.09377v-4.09378z"/><path d="M324.76665,166.9589v4.09377h-4.09377v-4.09377z"/><path d="M320.67288,171.05268v4.09378h-4.09377v-4.09378z"/><path d="M320.67288,162.86513v4.09377h-4.09377v-4.09377z"/><path d="M312.48532,171.05268v4.09378h-4.09378v-4.09378z"/><path d="M312.48532,162.86513v4.09377h-4.09378v-4.09377z"/><path d="M312.48532,158.77136v4.09377h-4.09378v-4.09377z"/><path d="M308.39157,171.05268v4.09378h-4.09377v-4.09378z"/><path d="M304.29778,166.9589v4.09377h-4.09377v-4.09377z"/><path d="M337.04798,195.53934v4.09377h-4.09377v-4.09377z"/><path d="M332.9542,199.63317v4.09377h-4.09378v-4.09377z"/><path d="M324.76665,195.53934v4.09377h-4.09377v-4.09377z"/><path d="M320.67288,199.63317v4.09377h-4.09377v-4.09377z"/><path d="M316.5791,195.53934v4.09377h-4.09377v-4.09377z"/><path d="M312.48532,199.63317v4.09377h-4.09378v-4.09377z"/><path d="M312.48532,195.53934v4.09377h-4.09378v-4.09377z"/></g></g></g></svg>